<?xml version="1.0" encoding="UTF-8" standalone="no"?>
<svg
   xmlns:dc="http://purl.org/dc/elements/1.1/"
   xmlns:cc="http://creativecommons.org/ns#"
   xmlns:rdf="http://www.w3.org/1999/02/22-rdf-syntax-ns#"
   xmlns:svg="http://www.w3.org/2000/svg"
   xmlns="http://www.w3.org/2000/svg"
   xmlns:sodipodi="http://sodipodi.sourceforge.net/DTD/sodipodi-0.dtd"
   xmlns:inkscape="http://www.inkscape.org/namespaces/inkscape"
   height="48"
   version="1.1"
   width="48"
   id="svg16"
   sodipodi:docname="magnetic_tiles_icon.svg"
   inkscape:version="0.92.4 (5da689c313, 2019-01-14)">
  <metadata
     id="metadata22">
    <rdf:RDF>
      <cc:Work
         rdf:about="">
        <dc:format>image/svg+xml</dc:format>
        <dc:type
           rdf:resource="http://purl.org/dc/dcmitype/StillImage" />
        <dc:title></dc:title>
      </cc:Work>
    </rdf:RDF>
  </metadata>
  <defs
     id="defs20" />
  <sodipodi:namedview
     pagecolor="#ffffff"
     bordercolor="#666666"
     borderopacity="1"
     objecttolerance="10"
     gridtolerance="10"
     guidetolerance="10"
     inkscape:pageopacity="0"
     inkscape:pageshadow="2"
     inkscape:window-width="1920"
     inkscape:window-height="1147"
     id="namedview18"
     showgrid="false"
     inkscape:zoom="20.416667"
     inkscape:cx="24"
     inkscape:cy="24"
     inkscape:window-x="-8"
     inkscape:window-y="-8"
     inkscape:window-maximized="1"
     inkscape:current-layer="svg16" />
  <polygon
     style="fill:#ff00ff;stroke:#000000;stroke-width:0.04166667;stroke-opacity:1;stroke-miterlimit:4;stroke-dasharray:none"
     id="polygon2"
     transform="matrix(48,0,0,48,24.000001,23.999999)"
     points="0.5,-0.5 0.5,0.5 -0.5,0.5 -0.5,-0.5 " />
  <polygon
     style="fill:#ff0000;stroke:#000000;stroke-width:0.125;stroke-miterlimit:4;stroke-dasharray:none;stroke-opacity:1"
     id="polygon4"
     transform="matrix(16,0,0,16,8.000001,7.999999)"
     points="0.5,-0.5 0.5,0.5 -0.5,0.5 -0.5,-0.5 " />
  <polygon
     style="fill:#ffff00;stroke:#000000;stroke-width:0.125;stroke-miterlimit:4;stroke-dasharray:none;stroke-opacity:1"
     id="polygon6"
     points="0.5,-0.5 0.5,0.5 -0.5,0.5 -0.5,-0.5 "
     transform="matrix(16,0,0,16,24.000001,23.999999)" />
  <polygon
     style="fill:#00ff00;stroke:#000000;stroke-width:0.125;stroke-miterlimit:4;stroke-dasharray:none;stroke-opacity:1"
     id="polygon8"
     transform="matrix(16,0,0,16,24.000001,7.999999)"
     points="0.5,-0.5 0.5,0.5 -0.5,0.5 -0.5,-0.5 " />
  <polygon
     style="fill:#00ffff;stroke:#000000;stroke-width:0.125;stroke-miterlimit:4;stroke-dasharray:none;stroke-opacity:1"
     id="polygon10"
     transform="matrix(16,0,0,16,24.000001,39.999999)"
     points="0.5,-0.5 0.5,0.5 -0.5,0.5 -0.5,-0.5 " />
  <polygon
     style="fill:#0000ff;stroke:#000000;stroke-width:0.125;stroke-miterlimit:4;stroke-dasharray:none;stroke-opacity:1"
     id="polygon12"
     transform="matrix(16,0,0,16,40.000001,7.999999)"
     points="0.5,-0.5 0.5,0.5 -0.5,0.5 -0.5,-0.5 " />
</svg>
