<?xml version="1.0" encoding="utf-8" standalone="no"?>
<svg
 height="32.81539763553442"
 version="1.1"
 width="42.041666666666735"
 xmlns="http://www.w3.org/2000/svg"
 xmlns:tiles="http://tiles/tiles"
>
<g
 transform="rotate(0.0)"
>
<polygon
 fill="#efefd2"
 points="0.5,0.0 -0.30901699437494734,0.5877852522924732 -0.1180339887498949,1.1102230246251565e-16 -0.30901699437494756,-0.5877852522924729 0.4999999999999999,2.220446049250313e-16"
 stroke="#000000"
 stroke-width=".03px"
 tiles:shapeno="2"
 tiles:size="1"
 tiles:type="PenroseTileItem"
 transform="translate(2.5059578743735234 -5.200159477432958) matrix(0.8090169943749497 -0.5877852522924707 0.5877852522924707 0.8090169943749497 0.0 0.0)"
 />
<polygon
 fill="#e1efd2"
 points="0.5,0.0 0.3090169943749475,0.5877852522924731 -0.5,1.1102230246251565e-16 0.30901699437494734,-0.5877852522924732 0.4999999999999999,-2.220446049250313e-16"
 stroke="#000000"
 stroke-width=".03px"
 tiles:shapeno="3"
 tiles:size="1.0"
 tiles:type="PenroseTileItem"
 transform="translate(1.755957874373527 -5.018523845431616) matrix(0.309016994374951 -0.9510565162951546 0.9510565162951546 0.309016994374951 0.0 0.0)"
 />
<polygon
 fill="#e1efd2"
 points="0.5,0.0 0.3090169943749475,0.5877852522924731 -0.5,1.1102230246251565e-16 0.30901699437494734,-0.5877852522924732 0.4999999999999999,-2.220446049250313e-16"
 stroke="#000000"
 stroke-width=".03px"
 tiles:shapeno="3"
 tiles:size="1.0"
 tiles:type="PenroseTileItem"
 transform="translate(1.1969408799985661 -4.836888213430289) matrix(-0.8090169943749483 -0.5877852522924751 0.5877852522924751 -0.8090169943749483 0.0 0.0)"
 />
<polygon
 fill="#e1efd2"
 points="0.5,0.0 0.3090169943749475,0.5877852522924731 -0.5,1.1102230246251565e-16 0.30901699437494734,-0.5877852522924732 0.4999999999999999,-2.220446049250313e-16"
 stroke="#000000"
 stroke-width=".03px"
 tiles:shapeno="3"
 tiles:size="1.0"
 tiles:type="PenroseTileItem"
 transform="translate(2.1014493771860483 -4.542995587284041) matrix(1.0 2.7755575615628914e-17 -2.7755575615628914e-17 1.0 0.0 0.0)"
 />
<polygon
 fill="#efefd2"
 points="0.5,0.0 -0.30901699437494734,0.5877852522924732 -0.1180339887498949,1.1102230246251565e-16 -0.30901699437494756,-0.5877852522924729 0.4999999999999999,2.220446049250313e-16"
 stroke="#000000"
 stroke-width=".03px"
 tiles:shapeno="2"
 tiles:size="1"
 tiles:type="PenroseTileItem"
 transform="translate(3.061170356763421 -5.0302329293350265) matrix(-0.309016994374946 -0.9510565162951542 0.9510565162951542 -0.309016994374946 0.0 0.0)"
 />
<polygon
 fill="#efefd2"
 points="0.5,0.0 -0.30901699437494734,0.5877852522924732 -0.1180339887498949,1.1102230246251565e-16 -0.30901699437494756,-0.5877852522924729 0.4999999999999999,2.220446049250313e-16"
 stroke="#000000"
 stroke-width=".03px"
 tiles:shapeno="2"
 tiles:size="1.0"
 tiles:type="PenroseTileItem"
 transform="translate(3.428628473956339 -5.521007953321423) matrix(-0.999818349672754 -0.01905958178065084 0.01905958178065084 -0.999818349672754 0.0 0.0)"
 />
<polygon
 fill="#e1efd2"
 points="0.5,0.0 0.3090169943749475,0.5877852522924731 -0.5,1.1102230246251565e-16 0.30901699437494734,-0.5877852522924732 0.4999999999999999,-2.220446049250313e-16"
 stroke="#000000"
 stroke-width=".03px"
 tiles:shapeno="3"
 tiles:size="1.0"
 tiles:type="PenroseTileItem"
 transform="translate(3.0021533623884746 -4.260812045041199) matrix(-0.8090169943749487 -0.5877852522924741 0.5877852522924741 -0.8090169943749487 0.0 0.0)"
 />
<polygon
 fill="#e1efd2"
 points="0.5,0.0 0.3090169943749475,0.5877852522924731 -0.5,1.1102230246251565e-16 0.30901699437494734,-0.5877852522924732 0.4999999999999999,-2.220446049250313e-16"
 stroke="#000000"
 stroke-width=".03px"
 tiles:shapeno="3"
 tiles:size="1.0"
 tiles:type="PenroseTileItem"
 transform="translate(3.561170356763421 -4.44244767704255) matrix(0.30901699437494745 -0.9510565162951545 0.9510565162951545 0.30901699437494745 0.0 0.0)"
 />
<polygon
 fill="#e1efd2"
 points="0.5,0.0 0.3090169943749475,0.5877852522924731 -0.5,1.1102230246251565e-16 0.30901699437494734,-0.5877852522924732 0.4999999999999999,-2.220446049250313e-16"
 stroke="#000000"
 stroke-width=".03px"
 tiles:shapeno="3"
 tiles:size="1.0"
 tiles:type="PenroseTileItem"
 transform="translate(1.7521533623884604 -4.079176413039857) matrix(0.3090169943749582 0.9510565162951522 -0.9510565162951522 0.3090169943749582 0.0 0.0)"
 />
<polygon
 fill="#e1efd2"
 points="0.5,0.0 0.3090169943749475,0.5877852522924731 -0.5,1.1102230246251565e-16 0.30901699437494734,-0.5877852522924732 0.4999999999999999,-2.220446049250313e-16"
 stroke="#000000"
 stroke-width=".03px"
 tiles:shapeno="3"
 tiles:size="1.0"
 tiles:type="PenroseTileItem"
 transform="translate(1.1969408799985661 -4.249102961137796) matrix(-0.809016994374951 0.5877852522924742 -0.5877852522924742 -0.809016994374951 0.0 0.0)"
 />
<polygon
 fill="#e1efd2"
 points="0.5,0.0 0.3090169943749475,0.5877852522924731 -0.5,1.1102230246251565e-16 0.30901699437494734,-0.5877852522924732 0.4999999999999999,-2.220446049250313e-16"
 stroke="#000000"
 stroke-width=".03px"
 tiles:shapeno="3"
 tiles:size="1.0"
 tiles:type="PenroseTileItem"
 transform="translate(4.136422882836955 -5.2135692154078725) matrix(-0.8200729772586988 0.572258955342823 -0.572258955342823 -0.8200729772586988 0.0 0.0)"
 />
<polygon
 fill="#e1efd2"
 points="0.5,0.0 0.3090169943749475,0.5877852522924731 -0.5,1.1102230246251565e-16 0.30901699437494734,-0.5877852522924732 0.4999999999999999,-2.220446049250313e-16"
 stroke="#000000"
 stroke-width=".03px"
 tiles:shapeno="3"
 tiles:size="1.0"
 tiles:type="PenroseTileItem"
 transform="translate(4.147625823922487 -5.801247696316924) matrix(-0.7976670950876458 -0.6030980064752651 0.6030980064752651 -0.7976670950876458 0.0 0.0)"
 />
<polygon
 fill="#efefd2"
 points="0.5,0.0 -0.30901699437494734,0.5877852522924732 -0.1180339887498949,1.1102230246251565e-16 -0.30901699437494756,-0.5877852522924729 0.4999999999999999,2.220446049250313e-16"
 stroke="#000000"
 stroke-width=".03px"
 tiles:shapeno="2"
 tiles:size="1"
 tiles:type="PenroseTileItem"
 transform="translate(4.061170356763418 -4.079176413039871) matrix(0.30901699437495056 -0.9510565162951533 0.9510565162951533 0.30901699437495056 0.0 0.0)"
 />
<polygon
 fill="#e1efd2"
 points="0.5,0.0 0.3090169943749475,0.5877852522924731 -0.5,1.1102230246251565e-16 0.30901699437494734,-0.5877852522924732 0.4999999999999999,-2.220446049250313e-16"
 stroke="#000000"
 stroke-width=".03px"
 tiles:shapeno="3"
 tiles:size="1"
 tiles:type="PenroseTileItem"
 transform="translate(3.5611703567634176 -3.49139116074738) matrix(-0.3090169943749463 -0.9510565162951543 0.9510565162951543 -0.3090169943749463 0.0 0.0)"
 />
<polygon
 fill="#efefd2"
 points="0.5,0.0 -0.30901699437494734,0.5877852522924732 -0.1180339887498949,1.1102230246251565e-16 -0.30901699437494756,-0.5877852522924729 0.4999999999999999,2.220446049250313e-16"
 stroke="#000000"
 stroke-width=".03px"
 tiles:shapeno="2"
 tiles:size="1.0"
 tiles:type="PenroseTileItem"
 transform="translate(2.811170356763414 -3.6730267927487343) matrix(-0.8090169943749482 -0.5877852522924742 0.5877852522924742 -0.8090169943749482 0.0 0.0)"
 />
<polygon
 fill="#e1efd2"
 points="0.5,0.0 0.3090169943749475,0.5877852522924731 -0.5,1.1102230246251565e-16 0.30901699437494734,-0.5877852522924732 0.4999999999999999,-2.220446049250313e-16"
 stroke="#000000"
 stroke-width=".03px"
 tiles:shapeno="3"
 tiles:size="1"
 tiles:type="PenroseTileItem"
 transform="translate(2.3111703567634176 -3.3097555287460576) matrix(-0.8090169943749476 -0.5877852522924745 0.5877852522924745 -0.8090169943749476 0.0 0.0)"
 />
<polygon
 fill="#efefd2"
 points="0.5,0.0 -0.30901699437494734,0.5877852522924732 -0.1180339887498949,1.1102230246251565e-16 -0.30901699437494756,-0.5877852522924729 0.4999999999999999,2.220446049250313e-16"
 stroke="#000000"
 stroke-width=".03px"
 tiles:shapeno="2"
 tiles:size="1.0"
 tiles:type="PenroseTileItem"
 transform="translate(1.2521533623884533 -3.491391160747412) matrix(-0.3090169943749619 0.9510565162951513 -0.9510565162951513 -0.3090169943749619 0.0 0.0)"
 />
<polygon
 fill="#e1efd2"
 points="0.5,0.0 0.3090169943749475,0.5877852522924731 -0.5,1.1102230246251565e-16 0.30901699437494734,-0.5877852522924732 0.4999999999999999,-2.220446049250313e-16"
 stroke="#000000"
 stroke-width=".03px"
 tiles:shapeno="3"
 tiles:size="1"
 tiles:type="PenroseTileItem"
 transform="translate(4.120187351138361 -3.3097555287460594) matrix(0.809016994374948 -0.5877852522924738 0.5877852522924738 0.809016994374948 0.0 0.0)"
 />
<polygon
 fill="#e1efd2"
 points="0.5,0.0 0.3090169943749475,0.5877852522924731 -0.5,1.1102230246251565e-16 0.30901699437494734,-0.5877852522924732 0.4999999999999999,-2.220446049250313e-16"
 stroke="#000000"
 stroke-width=".03px"
 tiles:shapeno="3"
 tiles:size="1.0"
 tiles:type="PenroseTileItem"
 transform="translate(3.2156788539508856 -3.015862902599819) matrix(-1.0 -2.7755575615628914e-17 2.7755575615628914e-17 -1.0 0.0 0.0)"
 />
<polygon
 fill="#efefd2"
 points="0.5,0.0 -0.30901699437494734,0.5877852522924732 -0.1180339887498949,1.1102230246251565e-16 -0.30901699437494756,-0.5877852522924729 0.4999999999999999,2.220446049250313e-16"
 stroke="#000000"
 stroke-width=".03px"
 tiles:shapeno="2"
 tiles:size="1"
 tiles:type="PenroseTileItem"
 transform="translate(1.5976448652009783 -3.015862902599821) matrix(-1.0000000000000004 -2.7755575615628914e-17 2.7755575615628914e-17 -1.0000000000000004 0.0 0.0)"
 />
<polygon
 fill="#e1efd2"
 points="0.5,0.0 0.3090169943749475,0.5877852522924731 -0.5,1.1102230246251565e-16 0.30901699437494734,-0.5877852522924732 0.4999999999999999,-2.220446049250313e-16"
 stroke="#000000"
 stroke-width=".03px"
 tiles:shapeno="3"
 tiles:size="1.0"
 tiles:type="PenroseTileItem"
 transform="translate(4.691876432409549 -5.0213119474574714) matrix(0.2908341218864623 0.9567734912436349 -0.9567734912436349 0.2908341218864623 0.0 0.0)"
 />
<polygon
 fill="#e1efd2"
 points="0.5,0.0 0.3090169943749475,0.5877852522924731 -0.5,1.1102230246251565e-16 0.30901699437494734,-0.5877852522924732 0.4999999999999999,-2.220446049250313e-16"
 stroke="#000000"
 stroke-width=".03px"
 tiles:shapeno="3"
 tiles:size="1.0"
 tiles:type="PenroseTileItem"
 transform="translate(4.679204345513318 -4.079176413039873) matrix(0.3090169943749473 -0.9510565162951548 0.9510565162951548 0.3090169943749473 0.0 0.0)"
 />
<polygon
 fill="#e1efd2"
 points="0.5,0.0 0.3090169943749475,0.5877852522924731 -0.5,1.1102230246251565e-16 0.30901699437494734,-0.5877852522924732 0.4999999999999999,-2.220446049250313e-16"
 stroke="#000000"
 stroke-width=".03px"
 tiles:shapeno="3"
 tiles:size="1.0"
 tiles:type="PenroseTileItem"
 transform="translate(4.710003171859883 -5.972195704025221) matrix(0.3270876007871401 -0.9449940218918407 0.9449940218918407 0.3270876007871401 0.0 0.0)"
 />
<polygon
 fill="#e1efd2"
 points="0.5,0.0 0.3090169943749475,0.5877852522924731 -0.5,1.1102230246251565e-16 0.30901699437494734,-0.5877852522924732 0.4999999999999999,-2.220446049250313e-16"
 stroke="#000000"
 stroke-width=".03px"
 tiles:shapeno="3"
 tiles:size="1.0"
 tiles:type="PenroseTileItem"
 transform="translate(4.120187351138357 -2.721970276453572) matrix(0.8090169943749431 0.587785252292481 -0.587785252292481 0.8090169943749431 0.0 0.0)"
 />
<polygon
 fill="#e1efd2"
 points="0.5,0.0 0.3090169943749475,0.5877852522924731 -0.5,1.1102230246251565e-16 0.30901699437494734,-0.5877852522924732 0.4999999999999999,-2.220446049250313e-16"
 stroke="#000000"
 stroke-width=".03px"
 tiles:shapeno="3"
 tiles:size="1.0"
 tiles:type="PenroseTileItem"
 transform="translate(3.5611703567634034 -2.5403346444522334) matrix(-0.309016994374948 0.9510565162951545 -0.9510565162951545 -0.309016994374948 0.0 0.0)"
 />
<polygon
 fill="#efefd2"
 points="0.5,0.0 -0.30901699437494734,0.5877852522924732 -0.1180339887498949,1.1102230246251565e-16 -0.30901699437494756,-0.5877852522924729 0.4999999999999999,2.220446049250313e-16"
 stroke="#000000"
 stroke-width=".03px"
 tiles:shapeno="2"
 tiles:size="1.0"
 tiles:type="PenroseTileItem"
 transform="translate(2.8111703567634034 -2.358699012450897) matrix(-0.8090169943749479 0.5877852522924734 -0.5877852522924734 -0.8090169943749479 0.0 0.0)"
 />
<polygon
 fill="#e1efd2"
 points="0.5,0.0 0.3090169943749475,0.5877852522924731 -0.5,1.1102230246251565e-16 0.30901699437494734,-0.5877852522924732 0.4999999999999999,-2.220446049250313e-16"
 stroke="#000000"
 stroke-width=".03px"
 tiles:shapeno="3"
 tiles:size="1.0"
 tiles:type="PenroseTileItem"
 transform="translate(2.3111703567634034 -2.7219702764535683) matrix(-0.809016994374949 0.5877852522924734 -0.5877852522924734 -0.809016994374949 0.0 0.0)"
 />
<polygon
 fill="#efefd2"
 points="0.5,0.0 -0.30901699437494734,0.5877852522924732 -0.1180339887498949,1.1102230246251565e-16 -0.30901699437494756,-0.5877852522924729 0.4999999999999999,2.220446049250313e-16"
 stroke="#000000"
 stroke-width=".03px"
 tiles:shapeno="2"
 tiles:size="1"
 tiles:type="PenroseTileItem"
 transform="translate(1.2521533623884533 -2.540334644452214) matrix(-0.3090169943749475 -0.9510565162951542 0.9510565162951542 -0.3090169943749475 0.0 0.0)"
 />
<polygon
 fill="#e1efd2"
 points="0.5,0.0 0.3090169943749475,0.5877852522924731 -0.5,1.1102230246251565e-16 0.30901699437494734,-0.5877852522924732 0.4999999999999999,-2.220446049250313e-16"
 stroke="#000000"
 stroke-width=".03px"
 tiles:shapeno="3"
 tiles:size="1.0"
 tiles:type="PenroseTileItem"
 transform="translate(5.024695848325832 -2.428077650307337) matrix(1.0 2.7755575615628914e-17 -2.7755575615628914e-17 1.0 0.0 0.0)"
 />
<polygon
 fill="#efefd2"
 points="0.5,0.0 -0.30901699437494734,0.5877852522924732 -0.1180339887498949,1.1102230246251565e-16 -0.30901699437494756,-0.5877852522924729 0.4999999999999999,2.220446049250313e-16"
 stroke="#000000"
 stroke-width=".03px"
 tiles:shapeno="2"
 tiles:size="1.0"
 tiles:type="PenroseTileItem"
 transform="translate(4.833712842700779 -3.0158629025998174) matrix(1.0 2.7755575615628914e-17 -2.7755575615628914e-17 1.0 0.0 0.0)"
 />
<polygon
 fill="#e1efd2"
 points="0.5,0.0 0.3090169943749475,0.5877852522924731 -0.5,1.1102230246251565e-16 0.30901699437494734,-0.5877852522924732 0.4999999999999999,-2.220446049250313e-16"
 stroke="#000000"
 stroke-width=".03px"
 tiles:shapeno="3"
 tiles:size="1.0"
 tiles:type="PenroseTileItem"
 transform="translate(5.024695848325846 -3.60364815489228) matrix(1.0 2.7755575615628914e-17 -2.7755575615628914e-17 1.0 0.0 0.0)"
 />
<polygon
 fill="#e1efd2"
 points="0.5,0.0 0.3090169943749475,0.5877852522924731 -0.5,1.1102230246251565e-16 0.30901699437494734,-0.5877852522924732 0.4999999999999999,-2.220446049250313e-16"
 stroke="#000000"
 stroke-width=".03px"
 tiles:shapeno="3"
 tiles:size="1.0"
 tiles:type="PenroseTileItem"
 transform="translate(5.046368546302693 -5.4901689021889695) matrix(0.9998183496727553 0.019059581780643375 -0.019059581780643375 0.9998183496727553 0.0 0.0)"
 />
<polygon
 fill="#efefd2"
 points="0.5,0.0 -0.30901699437494734,0.5877852522924732 -0.1180339887498949,1.1102230246251565e-16 -0.30901699437494756,-0.5877852522924729 0.4999999999999999,2.220446049250313e-16"
 stroke="#000000"
 stroke-width=".03px"
 tiles:shapeno="2"
 tiles:size="1"
 tiles:type="PenroseTileItem"
 transform="translate(5.429204345513318 -4.2608120450412095) matrix(0.809016994374948 -0.5877852522924738 0.5877852522924738 0.809016994374948 0.0 0.0)"
 />
<polygon
 fill="#efefd2"
 points="0.5,0.0 -0.30901699437494734,0.5877852522924732 -0.1180339887498949,1.1102230246251565e-16 -0.30901699437494756,-0.5877852522924729 0.4999999999999999,2.220446049250313e-16"
 stroke="#000000"
 stroke-width=".03px"
 tiles:shapeno="2"
 tiles:size="1"
 tiles:type="PenroseTileItem"
 transform="translate(5.4382782954817035 -4.825414623292636) matrix(0.7976670950876464 0.6030980064752627 -0.6030980064752627 0.7976670950876464 0.0 0.0)"
 />
<polygon
 fill="#e1efd2"
 points="0.5,0.0 0.3090169943749475,0.5877852522924731 -0.5,1.1102230246251565e-16 0.30901699437494734,-0.5877852522924732 0.4999999999999999,-2.220446049250313e-16"
 stroke="#000000"
 stroke-width=".03px"
 tiles:shapeno="3"
 tiles:size="1.0"
 tiles:type="PenroseTileItem"
 transform="translate(4.679204345513314 -1.9525493921597494) matrix(0.3090169943749552 0.9510565162951519 -0.9510565162951519 0.3090169943749552 0.0 0.0)"
 />
<polygon
 fill="#efefd2"
 points="0.5,0.0 -0.30901699437494734,0.5877852522924732 -0.1180339887498949,1.1102230246251565e-16 -0.30901699437494756,-0.5877852522924729 0.4999999999999999,2.220446049250313e-16"
 stroke="#000000"
 stroke-width=".03px"
 tiles:shapeno="2"
 tiles:size="1.0"
 tiles:type="PenroseTileItem"
 transform="translate(4.061170356763407 -1.9525493921597636) matrix(0.3090169943749472 0.9510565162951545 -0.9510565162951545 0.3090169943749472 0.0 0.0)"
 />
<polygon
 fill="#e1efd2"
 points="0.5,0.0 0.3090169943749475,0.5877852522924731 -0.5,1.1102230246251565e-16 0.30901699437494734,-0.5877852522924732 0.4999999999999999,-2.220446049250313e-16"
 stroke="#000000"
 stroke-width=".03px"
 tiles:shapeno="3"
 tiles:size="1.0"
 tiles:type="PenroseTileItem"
 transform="translate(1.7521533623884462 -1.9525493921597672) matrix(0.30901699437494845 -0.9510565162951552 0.9510565162951552 0.30901699437494845 0.0 0.0)"
 />
<polygon
 fill="#e1efd2"
 points="0.5,0.0 0.3090169943749475,0.5877852522924731 -0.5,1.1102230246251565e-16 0.30901699437494734,-0.5877852522924732 0.4999999999999999,-2.220446049250313e-16"
 stroke="#000000"
 stroke-width=".03px"
 tiles:shapeno="3"
 tiles:size="1"
 tiles:type="PenroseTileItem"
 transform="translate(1.2030967097009917 -1.763677148328993) matrix(-0.8090169943749546 -0.5877852522924641 0.5877852522924641 -0.8090169943749546 0.0 0.0)"
 />
<polygon
 fill="#e1efd2"
 points="0.5,0.0 0.3090169943749475,0.5877852522924731 -0.5,1.1102230246251565e-16 0.30901699437494734,-0.5877852522924732 0.4999999999999999,-2.220446049250313e-16"
 stroke="#000000"
 stroke-width=".03px"
 tiles:shapeno="3"
 tiles:size="1"
 tiles:type="PenroseTileItem"
 transform="translate(3.5611703567634034 -1.589278128157078) matrix(0.3090169943749476 0.9510565162951542 -0.9510565162951542 0.3090169943749476 0.0 0.0)"
 />
<polygon
 fill="#e1efd2"
 points="0.5,0.0 0.3090169943749475,0.5877852522924731 -0.5,1.1102230246251565e-16 0.30901699437494734,-0.5877852522924732 0.4999999999999999,-2.220446049250313e-16"
 stroke="#000000"
 stroke-width=".03px"
 tiles:shapeno="3"
 tiles:size="1"
 tiles:type="PenroseTileItem"
 transform="translate(3.002153362388457 -1.7709137601584217) matrix(-0.8090169943749481 0.5877852522924734 -0.5877852522924734 -0.8090169943749481 0.0 0.0)"
 />
<polygon
 fill="#e1efd2"
 points="0.5,0.0 0.3090169943749475,0.5877852522924731 -0.5,1.1102230246251565e-16 0.30901699437494734,-0.5877852522924732 0.4999999999999999,-2.220446049250313e-16"
 stroke="#000000"
 stroke-width=".03px"
 tiles:shapeno="3"
 tiles:size="1.0"
 tiles:type="PenroseTileItem"
 transform="translate(2.0976448652009854 -1.4770211340121762) matrix(1.0 2.7755575615628914e-17 -2.7755575615628914e-17 1.0 0.0 0.0)"
 />
<polygon
 fill="#efefd2"
 points="0.5,0.0 -0.30901699437494734,0.5877852522924732 -0.1180339887498949,1.1102230246251565e-16 -0.30901699437494756,-0.5877852522924729 0.4999999999999999,2.220446049250313e-16"
 stroke="#000000"
 stroke-width=".03px"
 tiles:shapeno="2"
 tiles:size="1.0"
 tiles:type="PenroseTileItem"
 transform="translate(5.988221339888286 -1.95254939215976) matrix(-0.3090169943749312 0.9510565162951604 -0.9510565162951604 -0.3090169943749312 0.0 0.0)"
 />
<polygon
 fill="#efefd2"
 points="0.5,0.0 -0.30901699437494734,0.5877852522924732 -0.1180339887498949,1.1102230246251565e-16 -0.30901699437494756,-0.5877852522924729 0.4999999999999999,2.220446049250313e-16"
 stroke="#000000"
 stroke-width=".03px"
 tiles:shapeno="2"
 tiles:size="1.0"
 tiles:type="PenroseTileItem"
 transform="translate(5.988221339888296 -4.0791764130398676) matrix(-0.30901699437493435 -0.9510565162951596 0.9510565162951596 -0.30901699437493435 0.0 0.0)"
 />
<polygon
 fill="#e1efd2"
 points="0.5,0.0 0.3090169943749475,0.5877852522924731 -0.5,1.1102230246251565e-16 0.30901699437494734,-0.5877852522924732 0.4999999999999999,-2.220446049250313e-16"
 stroke="#000000"
 stroke-width=".03px"
 tiles:shapeno="3"
 tiles:size="1.0"
 tiles:type="PenroseTileItem"
 transform="translate(5.9292043455133285 -2.7219702764535647) matrix(-0.809016994374958 0.5877852522924631 -0.5877852522924631 -0.809016994374958 0.0 0.0)"
 />
<polygon
 fill="#e1efd2"
 points="0.5,0.0 0.3090169943749475,0.5877852522924731 -0.5,1.1102230246251565e-16 0.30901699437494734,-0.5877852522924732 0.4999999999999999,-2.220446049250313e-16"
 stroke="#000000"
 stroke-width=".03px"
 tiles:shapeno="3"
 tiles:size="1.0"
 tiles:type="PenroseTileItem"
 transform="translate(5.9292043455133285 -3.309755528746056) matrix(-0.8090169943749409 -0.587785252292485 0.587785252292485 -0.8090169943749409 0.0 0.0)"
 />
<polygon
 fill="#efefd2"
 points="0.5,0.0 -0.30901699437494734,0.5877852522924732 -0.1180339887498949,1.1102230246251565e-16 -0.30901699437494756,-0.5877852522924729 0.4999999999999999,2.220446049250313e-16"
 stroke="#000000"
 stroke-width=".03px"
 tiles:shapeno="2"
 tiles:size="1"
 tiles:type="PenroseTileItem"
 transform="translate(5.429204345513311 -1.77091376015842) matrix(0.8090169943749512 0.5877852522924678 -0.5877852522924678 0.8090169943749512 0.0 0.0)"
 />
<polygon
 fill="#efefd2"
 points="0.5,0.0 -0.30901699437494734,0.5877852522924732 -0.1180339887498949,1.1102230246251565e-16 -0.30901699437494756,-0.5877852522924729 0.4999999999999999,2.220446049250313e-16"
 stroke="#000000"
 stroke-width=".03px"
 tiles:shapeno="2"
 tiles:size="1.0"
 tiles:type="PenroseTileItem"
 transform="translate(5.429204345513311 -1.1831285078659235) matrix(0.8090169943749541 -0.5877852522924669 0.5877852522924669 0.8090169943749541 0.0 0.0)"
 />
<polygon
 fill="#e1efd2"
 points="0.5,0.0 0.3090169943749475,0.5877852522924731 -0.5,1.1102230246251565e-16 0.30901699437494734,-0.5877852522924732 0.4999999999999999,-2.220446049250313e-16"
 stroke="#000000"
 stroke-width=".03px"
 tiles:shapeno="3"
 tiles:size="1.0"
 tiles:type="PenroseTileItem"
 transform="translate(4.679204345513318 -1.001492875864603) matrix(0.30901699437495517 -0.9510565162951524 0.9510565162951524 0.30901699437495517 0.0 0.0)"
 />
<polygon
 fill="#e1efd2"
 points="0.5,0.0 0.3090169943749475,0.5877852522924731 -0.5,1.1102230246251565e-16 0.30901699437494734,-0.5877852522924732 0.4999999999999999,-2.220446049250313e-16"
 stroke="#000000"
 stroke-width=".03px"
 tiles:shapeno="3"
 tiles:size="1.0"
 tiles:type="PenroseTileItem"
 transform="translate(4.120187351138364 -0.8198572438632699) matrix(-0.8090169943749446 -0.5877852522924785 0.5877852522924785 -0.8090169943749446 0.0 0.0)"
 />
<polygon
 fill="#efefd2"
 points="0.5,0.0 -0.30901699437494734,0.5877852522924732 -0.1180339887498949,1.1102230246251565e-16 -0.30901699437494756,-0.5877852522924729 0.4999999999999999,2.220446049250313e-16"
 stroke="#000000"
 stroke-width=".03px"
 tiles:shapeno="2"
 tiles:size="1.0"
 tiles:type="PenroseTileItem"
 transform="translate(3.061170356763407 -1.0014928758646011) matrix(-0.3090169943749478 0.9510565162951553 -0.9510565162951553 -0.3090169943749478 0.0 0.0)"
 />
<polygon
 fill="#efefd2"
 points="0.5,0.0 -0.30901699437494734,0.5877852522924732 -0.1180339887498949,1.1102230246251565e-16 -0.30901699437494756,-0.5877852522924729 0.4999999999999999,2.220446049250313e-16"
 stroke="#000000"
 stroke-width=".03px"
 tiles:shapeno="2"
 tiles:size="1"
 tiles:type="PenroseTileItem"
 transform="translate(2.5021533623884533 -0.8198572438632628) matrix(0.8090169943749463 0.5877852522924759 -0.5877852522924759 0.8090169943749463 0.0 0.0)"
 />
<polygon
 fill="#e1efd2"
 points="0.5,0.0 0.3090169943749475,0.5877852522924731 -0.5,1.1102230246251565e-16 0.30901699437494734,-0.5877852522924732 0.4999999999999999,-2.220446049250313e-16"
 stroke="#000000"
 stroke-width=".03px"
 tiles:shapeno="3"
 tiles:size="1"
 tiles:type="PenroseTileItem"
 transform="translate(1.7521533623884569 -1.0014928758646064) matrix(0.3090169943749458 0.9510565162951545 -0.9510565162951545 0.3090169943749458 0.0 0.0)"
 />
<polygon
 fill="#e1efd2"
 points="0.5,0.0 0.3090169943749475,0.5877852522924731 -0.5,1.1102230246251565e-16 0.30901699437494734,-0.5877852522924732 0.4999999999999999,-2.220446049250313e-16"
 stroke="#000000"
 stroke-width=".03px"
 tiles:shapeno="3"
 tiles:size="1"
 tiles:type="PenroseTileItem"
 transform="translate(1.1931363680135032 -1.183128507865943) matrix(-0.8090169943749467 0.5877852522924754 -0.5877852522924754 -0.8090169943749467 0.0 0.0)"
 />
<polygon
 fill="#e1efd2"
 points="0.5,0.0 0.3090169943749475,0.5877852522924731 -0.5,1.1102230246251565e-16 0.30901699437494734,-0.5877852522924732 0.4999999999999999,-2.220446049250313e-16"
 stroke="#000000"
 stroke-width=".03px"
 tiles:shapeno="3"
 tiles:size="1.0"
 tiles:type="PenroseTileItem"
 transform="translate(6.488221339888275 -2.540334644452223) matrix(0.30901699437494523 0.9510565162951556 -0.9510565162951556 0.30901699437494523 0.0 0.0)"
 />
<polygon
 fill="#e1efd2"
 points="0.5,0.0 0.3090169943749475,0.5877852522924731 -0.5,1.1102230246251565e-16 0.30901699437494734,-0.5877852522924732 0.4999999999999999,-2.220446049250313e-16"
 stroke="#000000"
 stroke-width=".03px"
 tiles:shapeno="3"
 tiles:size="1.0"
 tiles:type="PenroseTileItem"
 transform="translate(6.488221339888293 -3.491391160747387) matrix(0.3090169943749632 -0.9510565162951508 0.9510565162951508 0.3090169943749632 0.0 0.0)"
 />
<polygon
 fill="#e1efd2"
 points="0.5,0.0 0.3090169943749475,0.5877852522924731 -0.5,1.1102230246251565e-16 0.30901699437494734,-0.5877852522924732 0.4999999999999999,-2.220446049250313e-16"
 stroke="#000000"
 stroke-width=".03px"
 tiles:shapeno="3"
 tiles:size="1.0"
 tiles:type="PenroseTileItem"
 transform="translate(5.024695848325843 -0.5259646177170154) matrix(1.0 2.7755575615628914e-17 -2.7755575615628914e-17 1.0 0.0 0.0)"
 />
<polygon
 fill="#efefd2"
 points="0.5,0.0 -0.30901699437494734,0.5877852522924732 -0.1180339887498949,1.1102230246251565e-16 -0.30901699437494756,-0.5877852522924729 0.4999999999999999,2.220446049250313e-16"
 stroke="#000000"
 stroke-width=".03px"
 tiles:shapeno="2"
 tiles:size="1"
 tiles:type="PenroseTileItem"
 transform="translate(3.406661859575939 -0.5259646177170367) matrix(-1.0000000000000004 -2.7755575615628914e-17 2.7755575615628914e-17 -1.0000000000000004 0.0 0.0)"
 />
<polygon
 fill="#e1efd2"
 points="0.5,0.0 0.3090169943749475,0.5877852522924731 -0.5,1.1102230246251565e-16 0.30901699437494734,-0.5877852522924732 0.4999999999999999,-2.220446049250313e-16"
 stroke="#000000"
 stroke-width=".03px"
 tiles:shapeno="3"
 tiles:size="1.0"
 tiles:type="PenroseTileItem"
 transform="translate(6.8337128427007965 -3.015862902599798) matrix(1.0 2.7755575615628914e-17 -2.7755575615628914e-17 1.0 0.0 0.0)"
 />
<polygon
 fill="#efefd2"
 points="0.5,0.0 -0.30901699437494734,0.5877852522924732 -0.1180339887498949,1.1102230246251565e-16 -0.30901699437494756,-0.5877852522924729 0.4999999999999999,2.220446049250313e-16"
 stroke="#000000"
 stroke-width=".03px"
 tiles:shapeno="2"
 tiles:size="1"
 tiles:type="PenroseTileItem"
 transform="translate(1.2521533623884533 -0.413707623572126) matrix(-0.30901699437494673 0.9510565162951542 -0.9510565162951542 -0.30901699437494673 0.0 0.0)"
 />
<polygon
 fill="#e1efd2"
 points="0.5,0.0 0.3090169943749475,0.5877852522924731 -0.5,1.1102230246251565e-16 0.30901699437494734,-0.5877852522924732 0.4999999999999999,-2.220446049250313e-16"
 stroke="#000000"
 stroke-width=".03px"
 tiles:shapeno="3"
 tiles:size="1.0"
 tiles:type="PenroseTileItem"
 transform="translate(4.675399833528251 -0.062145443472847006) matrix(0.30901699437495317 0.9510565162951534 -0.9510565162951534 0.30901699437495317 0.0 0.0)"
 />
<polygon
 fill="#e1efd2"
 points="0.5,0.0 0.3090169943749475,0.5877852522924731 -0.5,1.1102230246251565e-16 0.30901699437494734,-0.5877852522924732 0.4999999999999999,-2.220446049250313e-16"
 stroke="#000000"
 stroke-width=".03px"
 tiles:shapeno="3"
 tiles:size="1.0"
 tiles:type="PenroseTileItem"
 transform="translate(4.120187351138357 -0.2320719915707805) matrix(-0.8090169943749538 0.5877852522924703 -0.5877852522924703 -0.8090169943749538 0.0 0.0)"
 />
<polygon
 fill="#e1efd2"
 points="0.5,0.0 0.3090169943749475,0.5877852522924731 -0.5,1.1102230246251565e-16 0.30901699437494734,-0.5877852522924732 0.4999999999999999,-2.220446049250313e-16"
 stroke="#000000"
 stroke-width=".03px"
 tiles:shapeno="3"
 tiles:size="1"
 tiles:type="PenroseTileItem"
 transform="translate(3.215678853950868 0.06182063457545084) matrix(-1.0000000000000009 -2.7755575615628914e-17 2.7755575615628914e-17 -1.0000000000000009 0.0 0.0)"
 />
<polygon
 fill="#e1efd2"
 points="0.5,0.0 0.3090169943749475,0.5877852522924731 -0.5,1.1102230246251565e-16 0.30901699437494734,-0.5877852522924732 0.4999999999999999,-2.220446049250313e-16"
 stroke="#000000"
 stroke-width=".03px"
 tiles:shapeno="3"
 tiles:size="1"
 tiles:type="PenroseTileItem"
 transform="translate(2.3111703567633963 -0.23207199157078406) matrix(0.8090169943749476 0.5877852522924742 -0.5877852522924742 0.8090169943749476 0.0 0.0)"
 />
<polygon
 fill="#e1efd2"
 points="0.5,0.0 0.3090169943749475,0.5877852522924731 -0.5,1.1102230246251565e-16 0.30901699437494734,-0.5877852522924732 0.4999999999999999,-2.220446049250313e-16"
 stroke="#000000"
 stroke-width=".03px"
 tiles:shapeno="3"
 tiles:size="1"
 tiles:type="PenroseTileItem"
 transform="translate(1.7521533623884427 -0.05043635956944925) matrix(-0.3090169943749489 0.9510565162951538 -0.9510565162951538 -0.3090169943749489 0.0 0.0)"
 />
<polygon
 fill="#efefd2"
 points="0.5,0.0 -0.30901699437494734,0.5877852522924732 -0.1180339887498949,1.1102230246251565e-16 -0.30901699437494756,-0.5877852522924729 0.4999999999999999,2.220446049250313e-16"
 stroke="#000000"
 stroke-width=".03px"
 tiles:shapeno="2"
 tiles:size="1.0"
 tiles:type="PenroseTileItem"
 transform="translate(4.179204345513297 0.5373488927230259) matrix(-0.30901699437494495 0.9510565162951555 -0.9510565162951555 -0.30901699437494495 0.0 0.0)"
 />
<polygon
 fill="#e1efd2"
 points="0.5,0.0 0.3090169943749475,0.5877852522924731 -0.5,1.1102230246251565e-16 0.30901699437494734,-0.5877852522924732 0.4999999999999999,-2.220446049250313e-16"
 stroke="#000000"
 stroke-width=".03px"
 tiles:shapeno="3"
 tiles:size="1"
 tiles:type="PenroseTileItem"
 transform="translate(3.5611703567633963 0.5373488927230312) matrix(-0.30901699437494945 0.9510565162951536 -0.9510565162951536 -0.30901699437494945 0.0 0.0)"
 />
<polygon
 fill="#efefd2"
 points="0.5,0.0 -0.30901699437494734,0.5877852522924732 -0.1180339887498949,1.1102230246251565e-16 -0.30901699437494756,-0.5877852522924729 0.4999999999999999,2.220446049250313e-16"
 stroke="#000000"
 stroke-width=".03px"
 tiles:shapeno="2"
 tiles:size="1.0"
 tiles:type="PenroseTileItem"
 transform="translate(2.8111703567633963 0.7189845247243696) matrix(-0.8090169943749492 0.5877852522924725 -0.5877852522924725 -0.8090169943749492 0.0 0.0)"
 />
<polygon
 fill="#efefd2"
 points="0.5,0.0 -0.30901699437494734,0.5877852522924732 -0.1180339887498949,1.1102230246251565e-16 -0.30901699437494756,-0.5877852522924729 0.4999999999999999,2.220446049250313e-16"
 stroke="#000000"
 stroke-width=".03px"
 tiles:shapeno="2"
 tiles:size="1.0"
 tiles:type="PenroseTileItem"
 transform="translate(2.2521533623884427 0.5373488927230241) matrix(0.30901699437493513 0.9510565162951595 -0.9510565162951595 0.30901699437493513 0.0 0.0)"
 />
</g>
</svg>