<?xml version="1.0" encoding="utf-8" standalone="no"?>
<svg
 height="22.484059392534334"
 version="1.1"
 width="33.25"
 xmlns="http://www.w3.org/2000/svg"
 xmlns:tiles="http://tiles/tiles"
>
<g
 transform="rotate(0.0)"
>
<polygon
 fill="#ffff00"
 points="-0.6112604669781572,-0.4874639560909118 0.38873953302184283,-0.4874639560909118 0.6112604669781573,0.4874639560909118 -0.3887395330218427,0.4874639560909119 -0.6112604669781573,-0.4874639560909117"
 stroke="#000000"
 stroke-width=".03px"
 transform="translate(-0.4479766098315521 1.4627137688317857) matrix(-0.43388373911755773 0.9009688679024193 -0.9009688679024193 -0.43388373911755773 0.0 0.0)"
 />
<polygon
 fill="#ffff00"
 points="-0.6112604669781572,-0.4874639560909118 0.38873953302184283,-0.4874639560909118 0.6112604669781573,0.4874639560909118 -0.3887395330218427,0.4874639560909119 -0.6112604669781573,-0.4874639560909117"
 stroke="#000000"
 stroke-width=".03px"
 transform="translate(-1.4229045220133758 0.5617449009293669) matrix(-0.9749279121818236 0.22252093395631398 -0.22252093395631398 -0.9749279121818236 0.0 0.0)"
 />
<polygon
 fill="#ffff00"
 points="-0.6112604669781572,-0.4874639560909118 0.38873953302184283,-0.4874639560909118 0.6112604669781573,0.4874639560909118 -0.3887395330218427,0.4874639560909119 -0.6112604669781573,-0.4874639560909117"
 stroke="#000000"
 stroke-width=".03px"
 transform="translate(0.8642868266109327 1.2622293348805762) matrix(0.43388373911755845 0.9009688679024189 -0.9009688679024189 0.43388373911755845 0.0 0.0)"
 />
<polygon
 fill="#ffff00"
 points="-0.6112604669781572,-0.4874639560909118 0.38873953302184283,-0.4874639560909118 0.6112604669781573,0.4874639560909118 -0.3887395330218427,0.4874639560909119 -0.6112604669781573,-0.4874639560909117"
 stroke="#000000"
 stroke-width=".03px"
 transform="translate(-1.3263563071564795 -0.7622293348805761) matrix(-0.7818314824680299 -0.6234898018587334 0.6234898018587334 -0.7818314824680299 0.0 0.0)"
 />
<polygon
 fill="#ffff00"
 points="-0.6112604669781572,-0.4874639560909118 0.38873953302184283,-0.4874639560909118 0.6112604669781573,0.4874639560909118 -0.3887395330218427,0.4874639560909119 -0.6112604669781573,-0.4874639560909117"
 stroke="#000000"
 stroke-width=".03px"
 transform="translate(-0.23338085114803073 -1.5131801554205033) matrix(0.00237282243508892 0.9999971848528831 -0.9999971848528831 0.00237282243508892 0.0 0.0)"
 />
<polygon
 fill="#00ff40"
 points="-0.8117449009293668,-0.3909157412340149 0.1882550990706332,-0.3909157412340149 0.8117449009293668,0.3909157412340149 -0.1882550990706332,0.39091574123401546 -0.8117449009293669,-0.39091574123401424"
 stroke="#000000"
 stroke-width=".03px"
 transform="translate(-2.03076213280617 -0.20048443395121013) matrix(0.9749279121818235 -0.222520933956314 0.222520933956314 0.9749279121818235 0.0 0.0)"
 />
<polygon
 fill="#00ff40"
 points="-0.8117449009293668,-0.3909157412340149 0.1882550990706332,-0.3909157412340149 0.8117449009293668,0.3909157412340149 -0.1882550990706332,0.39091574123401546 -0.8117449009293669,-0.39091574123401424"
 stroke="#000000"
 stroke-width=".03px"
 transform="translate(-1.4229045220133762 1.4627137688317862) matrix(0.43388373911755895 -0.9009688679024187 0.9009688679024187 0.43388373911755895 0.0 0.0)"
 />
<polygon
 fill="#00ff40"
 points="-0.8117449009293668,-0.3909157412340149 0.1882550990706332,-0.3909157412340149 0.8117449009293668,0.3909157412340149 -0.1882550990706332,0.39091574123401546 -0.8117449009293669,-0.39091574123401424"
 stroke="#000000"
 stroke-width=".03px"
 transform="translate(-2.909141830131099 0.5000000000000039) matrix(0.43388373911756045 0.9009688679024181 -0.9009688679024181 0.43388373911756045 0.0 0.0)"
 />
<polygon
 fill="#ffff00"
 points="-0.6112604669781572,-0.4874639560909118 0.38873953302184283,-0.4874639560909118 0.6112604669781573,0.4874639560909118 -0.3887395330218427,0.4874639560909119 -0.6112604669781573,-0.4874639560909117"
 stroke="#000000"
 stroke-width=".03px"
 transform="translate(-2.3012842193383025 1.262229334880578) matrix(-0.7818314824680317 -0.6234898018587314 0.6234898018587314 -0.7818314824680317 0.0 0.0)"
 />
<polygon
 fill="#ffff00"
 points="-0.6112604669781572,-0.4874639560909118 0.38873953302184283,-0.4874639560909118 0.6112604669781573,0.4874639560909118 -0.3887395330218427,0.4874639560909119 -0.6112604669781573,-0.4874639560909117"
 stroke="#000000"
 stroke-width=".03px"
 transform="translate(-0.4479766098315513 2.5862035706905218) matrix(-0.9749279121818233 0.22252093395631647 -0.22252093395631647 -0.9749279121818233 0.0 0.0)"
 />
<polygon
 fill="#00ff40"
 points="-0.8117449009293668,-0.3909157412340149 0.1882550990706332,-0.3909157412340149 0.8117449009293668,0.3909157412340149 -0.1882550990706332,0.39091574123401546 -0.8117449009293669,-0.39091574123401424"
 stroke="#000000"
 stroke-width=".03px"
 transform="translate(-1.4229045220133747 2.586203570690524) matrix(0.9749279121818241 0.22252093395631256 -0.22252093395631256 0.9749279121818241 0.0 0.0)"
 />
<polygon
 fill="#00ff40"
 points="-0.8117449009293668,-0.3909157412340149 0.1882550990706332,-0.3909157412340149 0.8117449009293668,0.3909157412340149 -0.1882550990706332,0.39091574123401546 -0.8117449009293669,-0.39091574123401424"
 stroke="#000000"
 stroke-width=".03px"
 transform="translate(0.25642921581813893 2.0244586697611524) matrix(-0.43388373911755834 -0.9009688679024189 0.9009688679024189 -0.43388373911755834 0.0 0.0)"
 />
<polygon
 fill="#00bfff"
 points="-0.9504844339512095,-0.21694186955877906 0.04951556604879048,-0.21694186955877906 0.9504844339512096,0.21694186955877906 -0.04951556604879037,0.21694186955877917 -0.9504844339512095,-0.21694186955877884"
 stroke="#000000"
 stroke-width=".03px"
 transform="translate(-2.301284219338303 2.163198202783002) matrix(0.7818314824680298 0.6234898018587338 -0.6234898018587338 0.7818314824680298 0.0 0.0)"
 />
<polygon
 fill="#00bfff"
 points="-0.9504844339512095,-0.21694186955877906 0.04951556604879048,-0.21694186955877906 0.9504844339512096,0.21694186955877906 -0.04951556604879037,0.21694186955877917 -0.9504844339512095,-0.21694186955877884"
 stroke="#000000"
 stroke-width=".03px"
 transform="translate(-1.1523824354812437 2.0244586697611533) matrix(0.9749279121818241 -0.22252093395631292 0.22252093395631292 0.9749279121818241 0.0 0.0)"
 />
<polygon
 fill="#00bfff"
 points="-0.9504844339512095,-0.21694186955877906 0.04951556604879048,-0.21694186955877906 0.9504844339512096,0.21694186955877906 -0.04951556604879037,0.21694186955877917 -0.9504844339512095,-0.21694186955877884"
 stroke="#000000"
 stroke-width=".03px"
 transform="translate(0.2564292158181454 3.1479484716198907) matrix(0.9749279121818244 -0.22252093395631128 0.22252093395631128 0.9749279121818244 0.0 0.0)"
 />
<polygon
 fill="#00bfff"
 points="-0.9504844339512095,-0.21694186955877906 0.04951556604879048,-0.21694186955877906 0.9504844339512096,0.21694186955877906 -0.04951556604879037,0.21694186955877917 -0.9504844339512095,-0.21694186955877884"
 stroke="#000000"
 stroke-width=".03px"
 transform="translate(0.8642868266109378 2.163198202782999) matrix(0.4338837391175622 -0.9009688679024174 0.9009688679024174 0.4338837391175622 0.0 0.0)"
 />
<polygon
 fill="#00ff40"
 points="-0.8117449009293668,-0.3909157412340149 0.1882550990706332,-0.3909157412340149 0.8117449009293668,0.3909157412340149 -0.1882550990706332,0.39091574123401546 -0.8117449009293669,-0.39091574123401424"
 stroke="#000000"
 stroke-width=".03px"
 transform="translate(1.1348089131430728 2.7249431037123664) matrix(0.7818314824680305 -0.6234898018587327 0.6234898018587327 0.7818314824680305 0.0 0.0)"
 />
<polygon
 fill="#ffff00"
 points="-0.6112604669781572,-0.4874639560909118 0.38873953302184283,-0.4874639560909118 0.6112604669781573,0.4874639560909118 -0.3887395330218427,0.4874639560909119 -0.6112604669781573,-0.4874639560909117"
 stroke="#000000"
 stroke-width=".03px"
 transform="translate(1.742666523935867 1.9627137688317908) matrix(-0.433883739117559 0.9009688679024189 -0.9009688679024189 -0.433883739117559 0.0 0.0)"
 />
<polygon
 fill="#00ff40"
 points="-0.8117449009293668,-0.3909157412340149 0.1882550990706332,-0.3909157412340149 0.8117449009293668,0.3909157412340149 -0.1882550990706332,0.39091574123401546 -0.8117449009293669,-0.39091574123401424"
 stroke="#000000"
 stroke-width=".03px"
 transform="translate(1.742666523935867 1.0617449009293713) matrix(-0.9749279121818228 -0.222520933956317 0.222520933956317 -0.9749279121818228 0.0 0.0)"
 />
<polygon
 fill="#00ff40"
 points="-0.8117449009293668,-0.3909157412340149 0.1882550990706332,-0.3909157412340149 0.8117449009293668,0.3909157412340149 -0.1882550990706332,0.39091574123401546 -0.8117449009293669,-0.39091574123401424"
 stroke="#000000"
 stroke-width=".03px"
 transform="translate(-1.1128802624805698 -1.713717001549456) matrix(0.7823345804643838 0.6228584142560945 -0.6228584142560945 0.7823345804643838 0.0 0.0)"
 />
<polygon
 fill="#00bfff"
 points="-0.9504844339512095,-0.21694186955877906 0.04951556604879048,-0.21694186955877906 0.9504844339512096,0.21694186955877906 -0.04951556604879037,0.21694186955877917 -0.9504844339512095,-0.21694186955877884"
 stroke="#000000"
 stroke-width=".03px"
 transform="translate(0.15592128259056626 -2.326001990800367) matrix(-0.781327874906833 0.6241207830969681 -0.6241207830969681 -0.781327874906833 0.0 0.0)"
 />
<polygon
 fill="#ffff00"
 points="-0.6112604669781572,-0.4874639560909118 0.38873953302184283,-0.4874639560909118 0.6112604669781573,0.4874639560909118 -0.3887395330218427,0.4874639560909119 -0.6112604669781573,-0.4874639560909117"
 stroke="#000000"
 stroke-width=".03px"
 transform="translate(2.6188738365211197 -0.1390555578037507) matrix(0.4332005051603387 0.9012975770126245 -0.9012975770126245 0.4332005051603387 0.0 0.0)"
 />
<polygon
 fill="#00ff40"
 points="-0.8117449009293668,-0.3909157412340149 0.1882550990706332,-0.3909157412340149 0.8117449009293668,0.3909157412340149 -0.1882550990706332,0.39091574123401546 -0.8117449009293669,-0.39091574123401424"
 stroke="#000000"
 stroke-width=".03px"
 transform="translate(2.835094992069907 0.8115930869879807) matrix(0.000758194062766536 -0.9999997125708403 0.9999997125708403 0.000758194062766536 0.0 0.0)"
 />
<polygon
 fill="#00ff40"
 points="-0.8117449009293668,-0.3909157412340149 0.1882550990706332,-0.3909157412340149 0.8117449009293668,0.3909157412340149 -0.1882550990706332,0.39091574123401546 -0.8117449009293669,-0.39091574123401424"
 stroke="#000000"
 stroke-width=".03px"
 transform="translate(1.9148941249868765 -0.7013343735860396) matrix(-0.7823039840128295 0.6228968426614913 -0.6228968426614913 -0.7823039840128295 0.0 0.0)"
 />
<polygon
 fill="#00bfff"
 points="-0.9504844339512095,-0.21694186955877906 0.04951556604879048,-0.21694186955877906 0.9504844339512096,0.21694186955877906 -0.04951556604879037,0.21694186955877917 -0.9504844339512095,-0.21694186955877884"
 stroke="#000000"
 stroke-width=".03px"
 transform="translate(2.6174325332119723 1.761912763704785) matrix(0.4345667236531027 -0.900639640862764 0.900639640862764 0.4345667236531027 0.0 0.0)"
 />
<polygon
 fill="#00bfff"
 points="-0.9504844339512095,-0.21694186955877906 0.04951556604879048,-0.21694186955877906 0.9504844339512096,0.21694186955877906 -0.04951556604879037,0.21694186955877917 -0.9504844339512095,-0.21694186955877884"
 stroke="#000000"
 stroke-width=".03px"
 transform="translate(2.2273427474833194 0.6723927198124168) matrix(-0.43320050516033554 -0.9012975770126261 0.9012975770126261 -0.43320050516033554 0.0 0.0)"
 />
<polygon
 fill="#00ff40"
 points="-0.8117449009293668,-0.3909157412340149 0.1882550990706332,-0.3909157412340149 0.8117449009293668,0.3909157412340149 -0.1882550990706332,0.39091574123401546 -0.8117449009293669,-0.39091574123401424"
 stroke="#000000"
 stroke-width=".03px"
 transform="translate(0.6436989151515417 -1.9376561215097912) matrix(-0.0008073151754513785 -0.9999996741210506 0.9999996741210506 -0.0008073151754513785 0.0 0.0)"
 />
<polygon
 fill="#ffff00"
 points="-0.6112604669781572,-0.4874639560909118 0.38873953302184283,-0.4874639560909118 0.6112604669781573,0.4874639560909118 -0.3887395330218427,0.4874639560909119 -0.6112604669781573,-0.4874639560909117"
 stroke="#000000"
 stroke-width=".03px"
 transform="translate(1.0368354002923543 -1.1250056021808539) matrix(0.7823039840128292 -0.6228968426614914 0.6228968426614914 0.7823039840128292 0.0 0.0)"
 />
<polygon
 fill="#ffff00"
 points="-0.6112604669781572,-0.4874639560909118 0.38873953302184283,-0.4874639560909118 0.6112604669781573,0.4874639560909118 -0.3887395330218427,0.4874639560909119 -0.6112604669781573,-0.4874639560909117"
 stroke="#000000"
 stroke-width=".03px"
 transform="translate(1.5228203662093334 0.11054638964585167) matrix(0.9749566918782759 0.22239480425983046 -0.22239480425983046 0.9749566918782759 0.0 0.0)"
 />
<polygon
 fill="#00bfff"
 points="-0.9504844339512095,-0.21694186955877906 0.04951556604879048,-0.21694186955877906 0.9504844339512096,0.21694186955877906 -0.04951556604879037,0.21694186955877917 -0.9504844339512095,-0.21694186955877884"
 stroke="#000000"
 stroke-width=".03px"
 transform="translate(1.9130919968305702 -1.3265987568859205) matrix(-0.974899390572703 -0.2226458583961814 0.2226458583961814 -0.974899390572703 0.0 0.0)"
 />
<polygon
 fill="#00bfff"
 points="-0.9504844339512095,-0.21694186955877906 0.04951556604879048,-0.21694186955877906 0.9504844339512096,0.21694186955877906 -0.04951556604879037,0.21694186955877917 -0.9504844339512095,-0.21694186955877884"
 stroke="#000000"
 stroke-width=".03px"
 transform="translate(-1.7206256686549222 -1.5744867810662024) matrix(-0.0008073151754451613 -0.9999996741210506 0.9999996741210506 -0.0008073151754451613 0.0 0.0)"
 />
<polygon
 fill="#ffff00"
 points="-0.6112604669781572,-0.4874639560909118 0.38873953302184283,-0.4874639560909118 0.6112604669781573,0.4874639560909118 -0.3887395330218427,0.4874639560909119 -0.6112604669781573,-0.4874639560909117"
 stroke="#000000"
 stroke-width=".03px"
 transform="translate(1.5219164721050467 -2.1388496193867956) matrix(0.9751072390001776 0.2217337873429544 -0.2217337873429544 0.9751072390001776 0.0 0.0)"
 />
<polygon
 fill="#00ff40"
 points="-0.8117449009293668,-0.3909157412340149 0.1882550990706332,-0.3909157412340149 0.8117449009293668,0.3909157412340149 -0.1882550990706332,0.39091574123401546 -0.8117449009293669,-0.39091574123401424"
 stroke="#000000"
 stroke-width=".03px"
 transform="translate(0.15541792981178792 -2.949491589476903) matrix(-0.9747479499465024 0.22330793553989756 -0.22330793553989756 -0.9747479499465024 0.0 0.0)"
 />
<polygon
 fill="#00ff40"
 points="-0.8117449009293668,-0.3909157412340149 0.1882550990706332,-0.3909157412340149 0.8117449009293668,0.3909157412340149 -0.1882550990706332,0.39091574123401546 -0.8117449009293669,-0.39091574123401424"
 stroke="#000000"
 stroke-width=".03px"
 transform="translate(2.4006373818373277 -1.716553518587272) matrix(-0.7823345804643851 -0.6228584142560931 0.6228584142560931 -0.7823345804643851 0.0 0.0)"
 />
<polygon
 fill="#ffff00"
 points="-0.6112604669781572,-0.4874639560909118 0.38873953302184283,-0.4874639560909118 0.6112604669781573,0.4874639560909118 -0.3887395330218427,0.4874639560909119 -0.6112604669781573,-0.4874639560909117"
 stroke="#000000"
 stroke-width=".03px"
 transform="translate(-0.7226199826148787 -2.525777230158468) matrix(0.7813278749068306 -0.6241207830969708 0.6241207830969708 0.7813278749068306 0.0 0.0)"
 />
<polygon
 fill="#ffff00"
 points="-0.6112604669781572,-0.4874639560909118 0.38873953302184283,-0.4874639560909118 0.6112604669781573,0.4874639560909118 -0.3887395330218427,0.4874639560909119 -0.6112604669781573,-0.4874639560909117"
 stroke="#000000"
 stroke-width=".03px"
 transform="translate(-2.422994977715158 -1.0109165874663966) matrix(0.003392360165115592 0.9999942459297004 -0.9999942459297004 0.003392360165115592 0.0 0.0)"
 />
<polygon
 fill="#00ff40"
 points="-0.8117449009293668,-0.3909157412340149 0.1882550990706332,-0.3909157412340149 0.8117449009293668,0.3909157412340149 -0.1882550990706332,0.39091574123401546 -0.8117449009293669,-0.39091574123401424"
 stroke="#000000"
 stroke-width=".03px"
 transform="translate(-2.2092787419864464 -1.9621314972197912) matrix(0.43082483162254004 -0.9024355735770893 0.9024355735770893 0.43082483162254004 0.0 0.0)"
 />
<polygon
 fill="#00bfff"
 points="-0.9504844339512095,-0.21694186955877906 0.04951556604879048,-0.21694186955877906 0.9504844339512096,0.21694186955877906 -0.04951556604879037,0.21694186955877917 -0.9504844339512095,-0.21694186955877884"
 stroke="#000000"
 stroke-width=".03px"
 transform="translate(1.1303455242851275 -2.9502786635753737) matrix(-0.9751072390001772 -0.22173378734295712 0.22173378734295712 -0.9751072390001772 0.0 0.0)"
 />
<polygon
 fill="#00bfff"
 points="-0.9504844339512095,-0.21694186955877906 0.04951556604879048,-0.21694186955877906 0.9504844339512096,0.21694186955877906 -0.04951556604879037,0.21694186955877917 -0.9504844339512095,-0.21694186955877884"
 stroke="#000000"
 stroke-width=".03px"
 transform="translate(-1.6040103852814083 -2.7264185181241056) matrix(-0.7797118817875364 0.6261384682315401 -0.6261384682315401 -0.7797118817875364 0.0 0.0)"
 />
<polygon
 fill="#00bfff"
 points="-0.9504844339512095,-0.21694186955877906 0.04951556604879048,-0.21694186955877906 0.9504844339512096,0.21694186955877906 -0.04951556604879037,0.21694186955877917 -0.9504844339512095,-0.21694186955877884"
 stroke="#000000"
 stroke-width=".03px"
 transform="translate(-3.1262058769390317 -0.4469461947229003) matrix(-0.002640873895228369 -0.999996512886455 0.999996512886455 -0.002640873895228369 0.0 0.0)"
 />
<polygon
 fill="#00bfff"
 points="-0.9504844339512095,-0.21694186955877906 0.04951556604879048,-0.21694186955877906 0.9504844339512096,0.21694186955877906 -0.04951556604879037,0.21694186955877917 -0.9504844339512095,-0.21694186955877884"
 stroke="#000000"
 stroke-width=".03px"
 transform="translate(3.0096454302066684 -0.950330772158701) matrix(-0.43392049995255827 -0.9009511638934279 0.9009511638934279 -0.43392049995255827 0.0 0.0)"
 />
<polygon
 fill="#ff0000"
 points="1.0382606982861684,0.5 0.25642921581813855,1.1234898018587336 -0.7184986963636851,0.9009688679024193 -1.1523824354812433,1.411261461005736e-16 -0.7184986963636854,-0.900968867902419 0.25642921581813827,-1.1234898018587336 1.0382606982861682,-0.5000000000000003"
 stroke="#000000"
 stroke-width=".03px"
 transform="translate(0.0 0.0) matrix(1.0 0.0 0.0 1.0 0.0 0.0)"
 />
<polygon
 fill="#00bfff"
 points="-0.9504844339512095,-0.21694186955877906 0.04951556604879048,-0.21694186955877906 0.9504844339512096,0.21694186955877906 -0.04951556604879037,0.21694186955877917 -0.9504844339512095,-0.21694186955877884"
 stroke="#000000"
 stroke-width=".03px"
 transform="translate(-2.3012842193383025 0.3612604669781567) matrix(0.7818314824680298 0.6234898018587338 -0.6234898018587338 0.7818314824680298 0.0 0.0)"
 />
</g>
</svg>