<?xml version="1.0" encoding="utf-8" standalone="no"?>
<svg
 height="28.535200188153063"
 version="1.1"
 width="51.14197229135058"
 xmlns="http://www.w3.org/2000/svg"
 xmlns:tiles="http://tiles/tiles"
>
<g
 transform="rotate(0)"
>
<polygon
 fill="#00ff00"
 points="0.5000000000000001,0.5 -0.5,0.5000000000000001 -0.5000000000000001,-0.5 0.4999999999999999,-0.5000000000000001"
 stroke="#000000"
 stroke-width=".03px"
 transform="translate(0.0 1.5) matrix(1.0 0.0 0.0 1.0 0.0 0.0)"
 />
<polygon
 fill="#00ff80"
 points="0.5,1.5 1.5,1.5 1.5,0.5 1.5,-0.5 0.5,-0.5 -0.5,-0.5 -0.5,-1.5 -1.5,-1.5 -1.5,-0.5 -1.5,0.5 -0.5,0.5 0.5,0.5 0.5,1.5"
 stroke="#000000"
 stroke-width=".03px"
 transform="translate(1.9999999999999998 4.5) matrix(1.0 0.0 0.0 1.0 0.0 0.0)"
 />
<polygon
 fill="#80ff00"
 points="0.5,1.5 1.5,1.5 1.5,0.5 0.5,0.5 0.5,-0.5 -0.5,-0.5 -0.5,-1.5 -1.5,-1.5 -1.5,-0.5 -1.5,0.5 -0.5,0.5 -0.5,1.5 0.5,1.5"
 stroke="#000000"
 stroke-width=".03px"
 transform="translate(2.0 1.5) matrix(1.0 0.0 0.0 1.0 0.0 0.0)"
 />
<polygon
 fill="#ff0040"
 points="1.0,1.0 2.0,1.0 2.0,0.0 1.0,0.0 0.0,0.0 0.0,-1.0 -1.0,-1.0 -1.0,0.0 -2.0,0.0 -2.0,1.0 -1.0,1.0 0.0,1.0 1.0,1.0"
 stroke="#000000"
 stroke-width=".03px"
 transform="translate(4.5 3.0) matrix(1.0 0.0 0.0 1.0 0.0 0.0)"
 />
<polygon
 fill="#ff4000"
 points="0.5,1.0 1.5,1.0 1.5,0.0 1.5,-1.0 0.5,-1.0 0.5,0.0 -0.5,0.0 -0.5,-1.0 -1.5,-1.0 -1.5,0.0 -1.5,1.0 -0.5,1.0 0.5,1.0"
 stroke="#000000"
 stroke-width=".03px"
 transform="translate(5.0 5.0) matrix(-1.0 0.0 -0.0 -1.0 0.0 0.0)"
 />
<polygon
 fill="#00ff00"
 points="-0.5,1.5 0.5,1.5 0.5,0.5 1.5,0.5 1.5,-0.5 1.5,-1.5 0.5,-1.5 0.5,-0.5 -0.5,-0.5 -1.5,-0.5 -1.5,0.5 -0.5,0.5 -0.5,1.5"
 stroke="#000000"
 stroke-width=".03px"
 transform="translate(5.0 1.5) matrix(1.0 0.0 0.0 1.0 0.0 0.0)"
 />
<polygon
 fill="#ff4000"
 points="-0.5,1.5 0.5,1.5 0.5,0.5 0.5,-0.5 1.5,-0.5 1.5,-1.5 0.5,-1.5 -0.5,-1.5 -1.5,-1.5 -1.5,-0.5 -0.5,-0.5 -0.5,0.5 -0.5,1.5"
 stroke="#000000"
 stroke-width=".03px"
 transform="translate(7.000000000000001 6.499999999999999) matrix(1.1726730697603216e-15 0.9999999999999997 -0.9999999999999997 1.1726730697603216e-15 0.0 0.0)"
 />
<polygon
 fill="#0080ff"
 points="0.0,1.0 1.0,1.0 1.0,0.0 2.0,0.0 2.0,-1.0 1.0,-1.0 0.0,-1.0 0.0,0.0 -1.0,0.0 -2.0,0.0 -2.0,1.0 -1.0,1.0 0.0,1.0"
 stroke="#000000"
 stroke-width=".03px"
 transform="translate(8.5 1.0) matrix(1.0 0.0 0.0 1.0 0.0 0.0)"
 />
<polygon
 fill="#ff4000"
 points="0.5,1.0 1.5,1.0 1.5,0.0 0.5,0.0 0.5,-1.0 -0.5,-1.0 -1.5,-1.0 -1.5,0.0 -1.5,1.0 -0.5,1.0 0.5,1.0"
 stroke="#000000"
 stroke-width=".03px"
 transform="translate(8.0 3.0) matrix(1.0 0.0 0.0 1.0 0.0 0.0)"
 />
<polygon
 fill="#ff0040"
 points="1.0,1.0 2.0,1.0 2.0,0.0 2.0,-1.0 1.0,-1.0 1.0,0.0 0.0,0.0 -1.0,0.0 -2.0,0.0 -2.0,1.0 -1.0,1.0 0.0,1.0 1.0,1.0"
 stroke="#000000"
 stroke-width=".03px"
 transform="translate(8.5 5.0) matrix(-1.0 0.0 -0.0 -1.0 0.0 0.0)"
 />
<polygon
 fill="#ff0080"
 points="-0.5,1.5 0.5,1.5 0.5,0.5 1.5,0.5 1.5,-0.5 0.5,-0.5 0.5,-1.5 -0.5,-1.5 -0.5,-0.5 -1.5,-0.5 -1.5,0.5 -0.5,0.5 -0.5,1.5"
 stroke="#000000"
 stroke-width=".03px"
 transform="translate(3.0 0.5) matrix(1.0 0.0 0.0 1.0 0.0 0.0)"
 />
<polygon
 fill="#0000ff"
 points="1.0,0.0 0.5,0.8660254037844386 -0.5,0.8660254037844386 -1.0,0.0 -0.5,-0.8660254037844386 0.5,-0.8660254037844386 1.0,0.0"
 stroke="#000000"
 stroke-width=".03px"
 transform="translate(-1.000000000000004 -7.06217782649107) matrix(0.5000000000000001 -0.8660254037844386 0.8660254037844386 0.5000000000000001 0.0 0.0)"
 />
<polygon
 fill="#00ffff"
 points="0.8660254037844387,0.49999999999999994 6.123233995736766e-17,1.0 -0.8660254037844385,0.5000000000000003 -0.8660254037844388,-0.4999999999999997 -1.8369701987210297e-16,-1.0 0.8660254037844384,-0.5000000000000004"
 stroke="#000000"
 stroke-width=".03px"
 transform="translate(-1.0000000000000004 -5.330127018922194) matrix(0.8660254037844387 -0.5 0.5 0.8660254037844387 0.0 0.0)"
 />
<polygon
 fill="#bf00ff"
 points="0.8660254037844387,0.49999999999999994 6.123233995736766e-17,1.0 -0.8660254037844385,0.5000000000000003 -0.8660254037844388,-0.4999999999999997 -1.8369701987210297e-16,-1.0 0.8660254037844384,-0.5000000000000004"
 stroke="#000000"
 stroke-width=".03px"
 transform="translate(0.49999999999999734 -6.196152422706633) matrix(0.8660254037844387 0.49999999999999994 -0.49999999999999994 0.8660254037844387 0.0 0.0)"
 />
<polygon
 fill="#ffbf00"
 points="1.0,0.0 1.5,0.8660254037844386 0.5,0.8660254037844386 0.0,0.0 -1.0,0.0 -1.5,-0.8660254037844386 -0.5,-0.8660254037844386 0.5,-0.8660254037844386 1.0,0.0"
 stroke="#000000"
 stroke-width=".03px"
 transform="translate(3.0000000000000018 -5.3301270189221945) matrix(1.0 0.0 0.0 1.0 0.0 0.0)"
 />
<polygon
 fill="#ff8000"
 points="1.25,0.4330127018922192 0.75,1.299038105676658 0.25,0.4330127018922192 -0.75,0.4330127018922192 -1.25,-0.4330127018922194 -0.75,-1.299038105676658 -0.25,-0.4330127018922194 0.75,-0.4330127018922194 1.25,0.4330127018922192"
 stroke="#000000"
 stroke-width=".03px"
 transform="translate(3.2500000000000018 -6.6291651245988525) matrix(1.0 0.0 0.0 1.0 0.0 0.0)"
 />
<polygon
 fill="#ff00ff"
 points="0.25,-0.4330127018922193 0.75,0.4330127018922193 -0.25,0.4330127018922193 -0.75,-0.4330127018922193 0.25,-0.4330127018922193"
 stroke="#000000"
 stroke-width=".03px"
 transform="translate(2.750000000000001 -4.031088913245534) matrix(-0.5000000000000007 0.8660254037844383 -0.8660254037844383 -0.5000000000000007 0.0 0.0)"
 />
<polygon
 fill="#0040ff"
 points="0.25,0.0 -0.25,0.8660254037844386 -1.25,0.8660254037844386 -0.75,0.0 -1.25,-0.8660254037844386 -0.25,-0.8660254037844386 0.75,-0.8660254037844386 1.25,0.0 0.25,0.0"
 stroke="#000000"
 stroke-width=".03px"
 transform="translate(3.25 -3.598076211353316) matrix(-0.9999999999999999 0.0 0.0 -0.9999999999999999 0.0 0.0)"
 />
<polygon
 fill="#00bfff"
 points="1.25,-0.4330127018922193 1.75,0.4330127018922193 0.75,0.4330127018922193 -0.25,0.4330127018922193 -1.25,0.4330127018922193 -1.75,-0.4330127018922193 -0.75,-0.4330127018922193 0.25,-0.4330127018922193 1.25,-0.4330127018922193"
 stroke="#000000"
 stroke-width=".03px"
 transform="translate(5.25 -2.299038105676658) matrix(1.0 0.0 0.0 1.0 0.0 0.0)"
 />
<polygon
 fill="#ffbf00"
 points="1.25,0.0 0.75,0.8660254037844386 -0.25,0.8660254037844386 -0.75,0.0 -1.25,-0.8660254037844386 -0.25,-0.8660254037844386 0.25,0.0 0.75,-0.8660254037844386 1.25,0.0"
 stroke="#000000"
 stroke-width=".03px"
 transform="translate(5.3750000000000036 -5.979646071760521) matrix(0.5000000000000022 -0.8660254037844373 0.8660254037844373 0.5000000000000022 0.0 0.0)"
 />
<polygon
 fill="#ff4000"
 points="0.5,0.0 1.0,0.8660254037844386 0.0,0.8660254037844386 -1.0,0.8660254037844386 -0.5,0.0 -1.0,-0.8660254037844386 0.0,-0.8660254037844386 1.0,-0.8660254037844386 0.5,0.0"
 stroke="#000000"
 stroke-width=".03px"
 transform="translate(5.0 -4.4641016151377535) matrix(1.0 0.0 0.0 1.0 0.0 0.0)"
 />
<polygon
 fill="#0080ff"
 points="-0.5,0.0 -1.0,0.8660254037844386 -1.5,0.0 -1.0,-0.8660254037844386 0.0,-0.8660254037844386 1.0,-0.8660254037844386 1.5,0.0 0.5,0.0 -0.5,0.0"
 stroke="#000000"
 stroke-width=".03px"
 transform="translate(6.75 -4.897114317029973) matrix(0.5000000000000001 -0.8660254037844386 0.8660254037844386 0.5000000000000001 0.0 0.0)"
 />
<polygon
 fill="#8000ff"
 points="0.5,1.5 1.5,1.5 1.5,0.5 0.5,0.5 -0.5,0.5 -0.5,-0.5 -0.5,-1.5 -1.5,-1.5 -1.5,-0.5 -1.5,0.5 -1.5,1.5 -0.5,1.5 0.5,1.5"
 stroke="#000000"
 stroke-width=".03px"
 transform="translate(7.549038105676656 -3.915063509461099) matrix(-0.5000000000000019 -0.8660254037844377 0.8660254037844377 -0.5000000000000019 0.0 0.0)"
 />
<polygon
 fill="#efe1d2"
 points="-0.6545084971874737,-0.47552825814757677 0.3454915028125263,-0.47552825814757677 0.6545084971874737,0.47552825814757677 -0.3454915028125263,0.4755282581475769 -0.6545084971874738,-0.47552825814757665"
 stroke="#000000"
 stroke-width=".03px"
 tiles:shapeno="1"
 tiles:size="1"
 tiles:type="PenroseTileItem"
 transform="translate(-7.936781502387397 -7.05637371642229) matrix(1.0 0.0 0.0 1.0 0.0 0.0)"
 />
<polygon
 fill="#e1efd2"
 points="0.5,0.0 0.3090169943749475,0.5877852522924731 -0.5,1.1102230246251565e-16 0.30901699437494734,-0.5877852522924732 0.4999999999999999,-2.220446049250313e-16"
 stroke="#000000"
 stroke-width=".03px"
 tiles:shapeno="3"
 tiles:size="1"
 tiles:type="PenroseTileItem"
 transform="translate(-7.591289999574871 -5.993060205982241) matrix(1.0 0.0 0.0 1.0 0.0 0.0)"
 />
<polygon
 fill="#efefd2"
 points="0.5,0.0 -0.30901699437494734,0.5877852522924732 -0.1180339887498949,1.1102230246251565e-16 -0.30901699437494756,-0.5877852522924729 0.4999999999999999,2.220446049250313e-16"
 stroke="#000000"
 stroke-width=".03px"
 tiles:shapeno="2"
 tiles:size="1"
 tiles:type="PenroseTileItem"
 transform="translate(-7.766661545071429 -5.107706330802738) matrix(1.0 0.0 0.0 1.0 0.0 0.0)"
 />
<polygon
 fill="#efefd2"
 points="0.5,0.0 -0.30901699437494734,0.5877852522924732 -0.1180339887498949,1.1102230246251565e-16 -0.30901699437494756,-0.5877852522924729 0.4999999999999999,2.220446049250313e-16"
 stroke="#000000"
 stroke-width=".03px"
 tiles:shapeno="2"
 tiles:size="1"
 tiles:type="PenroseTileItem"
 transform="translate(-7.119005409930065 -4.070613644631313) matrix(1.0 0.0 0.0 1.0 0.0 0.0)"
 />
<polygon
 fill="#ff8000"
 points="0.6881909602355868,0.5 -0.85065080835204,1.0417467896404344e-16 0.6881909602355868,-0.5000000000000002 -0.26286555605956674,0.8090169943749476 -0.26286555605956696,-0.8090169943749475"
 stroke="#000000"
 stroke-width=".03px"
 transform="translate(-6.1180339887498985 -7.750368786726658) matrix(0.9510565162951535 0.3090169943749474 -0.3090169943749474 0.9510565162951535 0.0 0.0)"
 />
<polygon
 fill="#ffea00"
 points="0.30901699437494745,0.4755282581475768 1.1102230246251565e-16,-0.4755282581475768 -0.30901699437494745,0.4755282581475767 0.09549150281252627,0.18163563200134014"
 stroke="#000000"
 stroke-width=".03px"
 transform="translate(-6.427050983124847 -5.998864316051022) matrix(1.0 0.0 0.0 1.0 0.0 0.0)"
 />
<polygon
 fill="#00ff80"
 points="0.6881909602355868,0.5 -0.26286555605956674,0.8090169943749476 -0.85065080835204,1.0417467896404344e-16 -0.26286555605956696,-0.8090169943749475 0.6881909602355868,-0.5000000000000002"
 stroke="#000000"
 stroke-width=".03px"
 transform="translate(-5.618033988749899 -6.211527018139032) matrix(0.9510565162951534 0.3090169943749479 -0.3090169943749479 0.9510565162951534 0.0 0.0)"
 />
<polygon
 fill="#e1efd2"
 points="0.5,0.0 0.3090169943749475,0.5877852522924731 -0.5,1.1102230246251565e-16 0.30901699437494734,-0.5877852522924732 0.4999999999999999,-2.220446049250313e-16"
 stroke="#000000"
 stroke-width=".03px"
 tiles:shapeno="3"
 tiles:size="1"
 tiles:type="PenroseTileItem"
 transform="translate(-5.654508497187479 -5.0478077997558675) matrix(0.30901699437494895 -0.9510565162951533 0.9510565162951533 0.30901699437494895 0.0 0.0)"
 />
<polygon
 fill="#e1efd2"
 points="0.5,0.0 0.3090169943749475,0.5877852522924731 -0.5,1.1102230246251565e-16 0.30901699437494734,-0.5877852522924732 0.4999999999999999,-2.220446049250313e-16"
 stroke="#000000"
 stroke-width=".03px"
 tiles:shapeno="3"
 tiles:size="1"
 tiles:type="PenroseTileItem"
 transform="translate(-5.6545084971874795 -4.096751283460714) matrix(0.30901699437494706 0.9510565162951538 -0.9510565162951538 0.30901699437494706 0.0 0.0)"
 />
<polygon
 fill="#efd2d2"
 points="-0.09549150281252633,-0.2938926261462366 0.9045084971874737,-0.2938926261462366 0.09549150281252639,0.2938926261462366 -0.9045084971874736,0.29389262614623674 -0.09549150281252627,-0.2938926261462366"
 stroke="#000000"
 stroke-width=".03px"
 tiles:shapeno="0"
 tiles:size="1"
 tiles:type="PenroseTileItem"
 transform="translate(-5.022542485937372 -8.307126968932462) matrix(1.0 0.0 0.0 1.0 0.0 0.0)"
 />
<polygon
 fill="#e1efd2"
 points="0.5,0.0 0.3090169943749475,0.5877852522924731 -0.5,1.1102230246251565e-16 0.30901699437494734,-0.5877852522924732 0.4999999999999999,-2.220446049250313e-16"
 stroke="#000000"
 stroke-width=".03px"
 tiles:shapeno="3"
 tiles:size="1"
 tiles:type="PenroseTileItem"
 transform="translate(-5.309016994374954 -4.572279541608291) matrix(1.0 0.0 0.0 1.0 0.0 0.0)"
 />
<polygon
 fill="#efefd2"
 points="0.5,0.0 -0.30901699437494734,0.5877852522924732 -0.1180339887498949,1.1102230246251565e-16 -0.30901699437494756,-0.5877852522924729 0.4999999999999999,2.220446049250313e-16"
 stroke="#000000"
 stroke-width=".03px"
 tiles:shapeno="2"
 tiles:size="1"
 tiles:type="PenroseTileItem"
 transform="translate(-4.904508497187479 -5.229443431757208) matrix(0.8090169943749481 -0.5877852522924721 0.5877852522924721 0.8090169943749481 0.0 0.0)"
 />
<polygon
 fill="#efefd2"
 points="0.5,0.0 -0.30901699437494734,0.5877852522924732 -0.1180339887498949,1.1102230246251565e-16 -0.30901699437494756,-0.5877852522924729 0.4999999999999999,2.220446049250313e-16"
 stroke="#000000"
 stroke-width=".03px"
 tiles:shapeno="2"
 tiles:size="1"
 tiles:type="PenroseTileItem"
 transform="translate(-4.904508497187481 -3.327330399166901) matrix(0.8090169943749486 -0.5877852522924714 0.5877852522924714 0.8090169943749486 0.0 0.0)"
 />
<polygon
 fill="#efefd2"
 points="0.5,0.0 -0.30901699437494734,0.5877852522924732 -0.1180339887498949,1.1102230246251565e-16 -0.30901699437494756,-0.5877852522924729 0.4999999999999999,2.220446049250313e-16"
 stroke="#000000"
 stroke-width=".03px"
 tiles:shapeno="2"
 tiles:size="1"
 tiles:type="PenroseTileItem"
 transform="translate(-4.9045084971874795 -3.9151156514593737) matrix(0.8090169943749473 0.5877852522924734 -0.5877852522924734 0.8090169943749473 0.0 0.0)"
 />
<polygon
 fill="#efd2d2"
 points="-0.09549150281252633,-0.2938926261462366 0.9045084971874737,-0.2938926261462366 0.09549150281252639,0.2938926261462366 -0.9045084971874736,0.29389262614623674 -0.09549150281252627,-0.2938926261462366"
 stroke="#000000"
 stroke-width=".03px"
 tiles:shapeno="0"
 tiles:size="1"
 tiles:type="PenroseTileItem"
 transform="translate(-4.713525491562425 -6.768285200344834) matrix(0.8090169943749475 0.5877852522924731 -0.5877852522924731 0.8090169943749475 0.0 0.0)"
 />
<polygon
 fill="#efe1d2"
 points="-0.6545084971874737,-0.47552825814757677 0.3454915028125263,-0.47552825814757677 0.6545084971874737,0.47552825814757677 -0.3454915028125263,0.4755282581475769 -0.6545084971874738,-0.47552825814757665"
 stroke="#000000"
 stroke-width=".03px"
 tiles:shapeno="1"
 tiles:size="1"
 tiles:type="PenroseTileItem"
 transform="translate(-4.368033988749898 -7.831598710784884) matrix(-0.3090169943749468 -0.9510565162951538 0.9510565162951538 -0.3090169943749468 0.0 0.0)"
 />
<polygon
 fill="#efe1d2"
 points="-0.6545084971874737,-0.47552825814757677 0.3454915028125263,-0.47552825814757677 0.6545084971874737,0.47552825814757677 -0.3454915028125263,0.4755282581475769 -0.6545084971874738,-0.47552825814757665"
 stroke="#000000"
 stroke-width=".03px"
 tiles:shapeno="1"
 tiles:size="1"
 tiles:type="PenroseTileItem"
 transform="translate(-3.809016994374951 -7.06217782649107) matrix(0.8090169943749479 -0.5877852522924722 0.5877852522924722 0.8090169943749479 0.0 0.0)"
 />
<polygon
 fill="#e1efd2"
 points="0.5,0.0 0.3090169943749475,0.5877852522924731 -0.5,1.1102230246251565e-16 0.30901699437494734,-0.5877852522924732 0.4999999999999999,-2.220446049250313e-16"
 stroke="#000000"
 stroke-width=".03px"
 tiles:shapeno="3"
 tiles:size="1"
 tiles:type="PenroseTileItem"
 transform="translate(-4.4045084971874795 -4.866172167754526) matrix(0.8090169943749487 -0.5877852522924712 0.5877852522924712 0.8090169943749487 0.0 0.0)"
 />
<polygon
 fill="#efd2d2"
 points="-0.09549150281252633,-0.2938926261462366 0.9045084971874737,-0.2938926261462366 0.09549150281252639,0.2938926261462366 -0.9045084971874736,0.29389262614623674 -0.09549150281252627,-0.2938926261462366"
 stroke="#000000"
 stroke-width=".03px"
 tiles:shapeno="0"
 tiles:size="1"
 tiles:type="PenroseTileItem"
 transform="translate(-3.213525491562425 -5.817228684049681) matrix(1.0 0.0 0.0 1.0 0.0 0.0)"
 />
<polygon
 fill="#efd2d2"
 points="-0.09549150281252633,-0.2938926261462366 0.9045084971874737,-0.2938926261462366 0.09549150281252639,0.2938926261462366 -0.9045084971874736,0.29389262614623674 -0.09549150281252627,-0.2938926261462366"
 stroke="#000000"
 stroke-width=".03px"
 tiles:shapeno="0"
 tiles:size="1"
 tiles:type="PenroseTileItem"
 transform="translate(-3.559016994374952 -6.292756942197259) matrix(-0.8090169943749481 0.5877852522924722 -0.5877852522924722 -0.8090169943749481 0.0 0.0)"
 />
<polygon
 fill="#efd2d2"
 points="-0.09549150281252633,-0.2938926261462366 0.9045084971874737,-0.2938926261462366 0.09549150281252639,0.2938926261462366 -0.9045084971874736,0.29389262614623674 -0.09549150281252627,-0.2938926261462366"
 stroke="#000000"
 stroke-width=".03px"
 tiles:shapeno="0"
 tiles:size="1"
 tiles:type="PenroseTileItem"
 transform="translate(-3.559016994374951 -7.831598710784886) matrix(0.30901699437494706 0.9510565162951535 -0.9510565162951535 0.30901699437494706 0.0 0.0)"
 />
<polygon
 fill="#efe1d2"
 points="-0.6545084971874737,-0.47552825814757677 0.3454915028125263,-0.47552825814757677 0.6545084971874737,0.47552825814757677 -0.3454915028125263,0.4755282581475769 -0.6545084971874738,-0.47552825814757665"
 stroke="#000000"
 stroke-width=".03px"
 tiles:shapeno="1"
 tiles:size="1"
 tiles:type="PenroseTileItem"
 transform="translate(-2.6545084971874777 -7.537706084638647) matrix(1.0 0.0 0.0 1.0 0.0 0.0)"
 />
<polygon
 fill="#efe1d2"
 points="-0.6545084971874737,-0.47552825814757677 0.3454915028125263,-0.47552825814757677 0.6545084971874737,0.47552825814757677 -0.3454915028125263,0.4755282581475769 -0.6545084971874738,-0.47552825814757665"
 stroke="#000000"
 stroke-width=".03px"
 tiles:shapeno="1"
 tiles:size="1"
 tiles:type="PenroseTileItem"
 transform="translate(-2.6545084971874777 -6.586649568343495) matrix(0.30901699437494823 -0.9510565162951534 0.9510565162951534 0.30901699437494823 0.0 0.0)"
 />
<polygon
 fill="#00ff00"
 points="-1.0,-0.5000000000000001 0.0,-0.5000000000000001 1.0,-0.5000000000000001 0.0,0.5000000000000001"
 stroke="#000000"
 stroke-width=".03px"
 transform="translate(-3.43933982822018 0.525126265847081) matrix(-0.7071067811865474 -0.7071067811865476 0.7071067811865476 -0.7071067811865474 0.0 0.0)"
 />
<polygon
 fill="#00ff00"
 points="-1.0,-1.0 0.0,-1.0 1.0,-1.0 1.0,0.0 1.0,1.0 -2.220446049250313e-16,0.0"
 stroke="#000000"
 stroke-width=".03px"
 transform="translate(-4.500000000000001 1.5857864376269037) matrix(0.7071067811865479 0.7071067811865472 -0.7071067811865472 0.7071067811865479 0.0 0.0)"
 />
<polygon
 fill="#00ff00"
 points="-1.0,-1.0 0.0,-1.0 1.0,-1.0 1.0,0.0 1.0,1.0 -2.220446049250313e-16,0.0"
 stroke="#000000"
 stroke-width=".03px"
 transform="translate(-3.500000000000001 1.9999999999999996) matrix(0.0 1.0 -1.0 0.0 0.0 0.0)"
 />
<polygon
 fill="#00ff00"
 points="-0.5,0.5 -0.5,-0.5 0.5,-0.5"
 stroke="#000000"
 stroke-width=".03px"
 transform="translate(-3.085786437626907 0.8786796564403576) matrix(-0.7071067811865479 0.7071067811865471 -0.7071067811865471 -0.7071067811865479 0.0 0.0)"
 />
<polygon
 fill="#00ff00"
 points="-0.5,0.5 -0.5,-0.5 0.5,-0.5"
 stroke="#000000"
 stroke-width=".03px"
 transform="translate(-2.000000000000001 0.49999999999999956) matrix(-6.938893903907228e-18 0.9999999999999999 -0.9999999999999999 -6.938893903907228e-18 0.0 0.0)"
 />
<polygon
 fill="#00ff00"
 points="-0.5,0.0 0.5,1.0 0.5,0.0 -0.5,-1.0"
 stroke="#000000"
 stroke-width=".03px"
 transform="translate(-2.000000000000001 1.9999999999999996) matrix(1.0 0.0 0.0 1.0 0.0 0.0)"
 />
<polygon
 fill="#00ff40"
 points="-0.5,0.5 -0.5,-0.5 0.5,-0.5"
 stroke="#000000"
 stroke-width=".03px"
 transform="translate(-2.000000000000001 2.499999999999998) matrix(-0.0 -0.9999999999999999 0.9999999999999999 0.0 0.0 0.0)"
 />
<polygon
 fill="#ff0080"
 points="-0.8535533905932737,-0.35355339059327373 0.14644660940672627,-0.35355339059327373 0.8535533905932738,0.35355339059327373 -0.14644660940672616,0.35355339059327384 -0.8535533905932738,-0.3535533905932736"
 stroke="#000000"
 stroke-width=".03px"
 transform="translate(-1.8535533905932746 1.1464466094067256) matrix(0.7071067811865472 0.7071067811865478 -0.7071067811865478 0.7071067811865472 0.0 0.0)"
 />
<polygon
 fill="#40ff00"
 points="-2.0,-1.5 -1.0,-1.5 0.0,-1.5 1.0,-1.5 1.0,-0.5 1.0,0.5 1.0,1.5 1.0,2.5 0.3999999999999999,1.7000000000000002 -0.20000000000000018,0.9000000000000002 -0.8000000000000003,0.10000000000000031 -1.4000000000000004,-0.6999999999999996"
 stroke="#000000"
 stroke-width=".03px"
 transform="translate(-2.5000000000000018 4.5) matrix(1.0 0.0 0.0 1.0 0.0 0.0)"
 />
<polygon
 fill="#ffbf00"
 points="-0.5,-0.8660254037844387 0.5,-0.8660254037844387 2.220446049250313e-16,0.0 -0.49999999999999956,0.8660254037844387"
 stroke="#000000"
 stroke-width=".03px"
 transform="translate(-1.499999999999999 0.9999999999999996) matrix(-0.8660254037844393 0.499999999999999 -0.499999999999999 -0.8660254037844393 0.0 0.0)"
 />
<polygon
 fill="#bf00ff"
 points="1.5,0.5 2.5,0.5 2.5,-0.5 1.5,-0.5 0.5,-0.5 -0.5,-0.5 -1.5,-0.5 -2.5,-0.5 -2.5,0.5 -1.5,0.5 -0.5,0.5 0.5,0.5 1.5,0.5"
 stroke="#000000"
 stroke-width=".03px"
 transform="translate(-0.9999999999999989 4.5) matrix(-4.440892098500626e-16 -1.0 1.0 -4.440892098500626e-16 0.0 0.0)"
 />
<polygon
 fill="#ff0000"
 points="1.8660254037844393,0.5000000000000001 1.366025403784439,1.3660254037844388 0.5000000000000006,1.866025403784439 -0.4999999999999999,1.8660254037844393 -1.3660254037844388,1.366025403784439 -1.866025403784439,0.5000000000000007 -1.8660254037844393,-0.5000000000000002 -1.3660254037844393,-1.3660254037844388 -0.5000000000000016,-1.8660254037844388 0.4999999999999992,-1.8660254037844395 1.3660254037844375,-1.3660254037844406 1.8660254037844388,-0.5000000000000017"
 stroke="#000000"
 stroke-width=".03px"
 transform="translate(-7.398373606004128 -0.44065354874418894) matrix(1.0 0.0 0.0 1.0 0.0 0.0)"
 />
<polygon
 fill="#ff00ff"
 points="1.5388417685876268,0.49999999999999994 0.9510565162951536,1.3090169943749475 9.907600726170916e-17,1.618033988749895 -0.9510565162951534,1.3090169943749475 -1.5388417685876268,0.5000000000000001 -1.5388417685876268,-0.4999999999999998 -0.9510565162951538,-1.3090169943749472 -2.9722802178512745e-16,-1.618033988749895 0.9510565162951533,-1.3090169943749477 1.5388417685876268,-0.5000000000000003"
 stroke="#000000"
 stroke-width=".03px"
 transform="translate(-7.409307353785948 -0.4524981840551021) matrix(1.0 0.0 0.0 1.0 0.0 0.0)"
 />
<polygon
 fill="#0080ff"
 points="1.0382606982861684,0.5 0.25642921581813855,1.1234898018587336 -0.7184986963636851,0.9009688679024193 -1.1523824354812433,1.411261461005736e-16 -0.7184986963636854,-0.900968867902419 0.25642921581813827,-1.1234898018587336 1.0382606982861682,-0.5000000000000003"
 stroke="#000000"
 stroke-width=".03px"
 transform="translate(-7.398627633271198 -0.44541095160348476) matrix(1.0 0.0 0.0 1.0 0.0 0.0)"
 />
<polygon
 fill="#0000ff"
 points="1.2071067811865475,0.5 0.5000000000000001,1.2071067811865475 -0.49999999999999994,1.2071067811865475 -1.2071067811865475,0.5000000000000002 -1.2071067811865477,-0.4999999999999999 -0.5000000000000008,-1.2071067811865472 0.5000000000000003,-1.2071067811865475 1.2071067811865472,-0.5000000000000008"
 stroke="#000000"
 stroke-width=".03px"
 transform="translate(-7.391391595091745 -0.46133610067208153) matrix(1.0 0.0 0.0 1.0 0.0 0.0)"
 />
<ellipse
 cx="0.0"
 cy="0.0"
 fill="#80ff00"
 rx="1.0"
 ry="0.75"
 stroke="#000000"
 stroke-width=".03px"
 transform="translate(-7.355972519012276 3.680334444329737) matrix(1.0 0.0 0.0 1.0 0.0 0.0)"
 />
<ellipse
 cx="0.0"
 cy="0.0"
 fill="#ff0000"
 rx="1.0"
 ry="1.0"
 stroke="#000000"
 stroke-width=".03px"
 transform="translate(-6.461470959364959 3.6958842671076257) matrix(1.0 0.0 0.0 1.0 0.0 0.0)"
 />
<polygon
 fill="#80ff00"
 points="0.288675134594813,0.5 -0.5773502691896258,7.07050159149938e-17 0.28867513459481253,-0.5000000000000003"
 stroke="#000000"
 stroke-width=".03px"
 transform="translate(-1.5 -3.886751345948129) matrix(0.8660254037844385 -0.5000000000000003 0.5000000000000003 0.8660254037844385 0.0 0.0)"
 />
<polygon
 fill="#80ff00"
 points="1.25,0.0 0.75,0.8660254037844386 0.25,0.0 -0.25,0.8660254037844386 -0.75,0.0 -1.25,-0.8660254037844386 -0.25,-0.8660254037844386 0.75,-0.8660254037844386 1.25,0.0"
 stroke="#000000"
 stroke-width=".03px"
 transform="translate(1.375 -4.680607966083865) matrix(0.4999999999999991 0.8660254037844392 -0.8660254037844392 0.4999999999999991 0.0 0.0)"
 />
<polygon
 fill="#0040ff"
 points="0.0,0.0 -0.5,0.8660254037844386 -1.0,0.0 -1.5,-0.8660254037844386 -0.5,-0.8660254037844386 0.5,-0.8660254037844386 1.5,-0.8660254037844386 1.0,0.0 0.0,0.0"
 stroke="#000000"
 stroke-width=".03px"
 transform="translate(0.0 -3.598076211353316) matrix(1.0 0.0 0.0 1.0 0.0 0.0)"
 />
<polygon
 fill="#00ff00"
 points="0.5,0.0 0.0,0.8660254037844386 -0.5,0.0 -1.5,0.0 -1.0,-0.8660254037844386 0.0,-0.8660254037844386 1.0,-0.8660254037844386 1.5,0.0 0.5,0.0"
 stroke="#000000"
 stroke-width=".03px"
 transform="translate(1.0 -2.7320508075688767) matrix(1.0 0.0 0.0 1.0 0.0 0.0)"
 />
<polygon
 fill="#ffea00"
 points="1.118033988749895,0.5 -0.5,0.5 -0.5,-0.5 1.118033988749895,-0.5"
 stroke="#000000"
 stroke-width=".03px"
 transform="translate(-1.6180339887498951 -0.5000000000000001) matrix(1.0 0.0 0.0 1.0 0.0 0.0)"
 />
<polygon
 fill="#ff0000"
 points="0.0,0.5 1.0,0.5 1.0,-0.5 0.0,-0.5 -1.0,-0.5 -1.0,0.5 0.0,0.5"
 stroke="#000000"
 stroke-width=".03px"
 transform="translate(0.0 0.0) matrix(0.0 -1.0 1.0 0.0 0.0 0.0)"
 />
<polygon
 fill="#00ff00"
 points="0.5000000000000001,0.5 -0.5,0.5000000000000001 -0.5000000000000001,-0.5 0.4999999999999999,-0.5000000000000001"
 stroke="#000000"
 stroke-width=".03px"
 transform="translate(1.0 -0.5) matrix(1.0 0.0 0.0 1.0 0.0 0.0)"
 />
<polygon
 fill="#ff0080"
 points="0.25,0.0 0.75,0.8660254037844386 -0.25,0.8660254037844386 -0.75,0.0 -1.25,-0.8660254037844386 -0.25,-0.8660254037844386 0.75,-0.8660254037844386 1.25,0.0 0.25,0.0"
 stroke="#000000"
 stroke-width=".03px"
 transform="translate(2.75 -1.8660254037844386) matrix(1.0 0.0 0.0 1.0 0.0 0.0)"
 />
</g>
</svg>