<?xml version="1.0" encoding="utf-8" standalone="no"?>
<svg
 height="20.0"
 version="1.1"
 width="20.0"
 xmlns="http://www.w3.org/2000/svg"
 xmlns:tiles="http://tiles/tiles"
>
<g
 transform="rotate(0)"
>
<polygon
 fill="#7f7f7f"
 points="-1.5,-2.0 -0.5,-2.0 0.5,-2.0 1.5,-2.0 1.5,-1.0 1.5,0.0 1.5,1.0 1.5,2.0 0.8999999999999999,1.2000000000000002 0.2999999999999998,0.40000000000000036 -0.30000000000000027,-0.39999999999999947 -0.9000000000000004,-1.1999999999999993"
 stroke="#000000"
 stroke-width=".03px"
 transform="translate(-0.45833333333333215 0.02083333333333348) matrix(1.0 0.0 0.0 1.0 0.0 0.0)"
 />
<polygon
 fill="#0000ff"
 points="0.5000000000000001,0.5 -0.5,0.5000000000000001 -0.5000000000000001,-0.5 0.4999999999999999,-0.5000000000000001"
 stroke="#000000"
 stroke-width=".03px"
 transform="translate(-1.458333333333332 -0.47916666666666646) matrix(0.5999999999999999 0.8000000000000003 -0.8000000000000003 0.5999999999999999 0.0 0.0)"
 />
<polygon
 fill="#0000ff"
 points="0.5000000000000001,0.5 -0.5,0.5000000000000001 -0.5000000000000001,-0.5 0.4999999999999999,-0.5000000000000001"
 stroke="#000000"
 stroke-width=".03px"
 transform="translate(-2.0583333333333327 -1.2791666666666661) matrix(0.5999999999999999 0.8000000000000003 -0.8000000000000003 0.5999999999999999 0.0 0.0)"
 />
<polygon
 fill="#0000ff"
 points="0.5000000000000001,0.5 -0.5,0.5000000000000001 -0.5000000000000001,-0.5 0.4999999999999999,-0.5000000000000001"
 stroke="#000000"
 stroke-width=".03px"
 transform="translate(-1.6583333333333325 0.9208333333333334) matrix(0.5999999999999999 0.8000000000000003 -0.8000000000000003 0.5999999999999999 0.0 0.0)"
 />
<polygon
 fill="#0000ff"
 points="0.5000000000000001,0.5 -0.5,0.5000000000000001 -0.5000000000000001,-0.5 0.4999999999999999,-0.5000000000000001"
 stroke="#000000"
 stroke-width=".03px"
 transform="translate(-0.8583333333333323 0.32083333333333336) matrix(0.5999999999999999 0.8000000000000003 -0.8000000000000003 0.5999999999999999 0.0 0.0)"
 />
<polygon
 fill="#0000ff"
 points="0.5000000000000001,0.5 -0.5,0.5000000000000001 -0.5000000000000001,-0.5 0.4999999999999999,-0.5000000000000001"
 stroke="#000000"
 stroke-width=".03px"
 transform="translate(-2.258333333333333 0.12083333333333318) matrix(0.5999999999999999 0.8000000000000003 -0.8000000000000003 0.5999999999999999 0.0 0.0)"
 />
<polygon
 fill="#0000ff"
 points="0.5000000000000001,0.5 -0.5,0.5000000000000001 -0.5000000000000001,-0.5 0.4999999999999999,-0.5000000000000001"
 stroke="#000000"
 stroke-width=".03px"
 transform="translate(-2.8583333333333334 -0.6791666666666669) matrix(0.5999999999999999 0.8000000000000003 -0.8000000000000003 0.5999999999999999 0.0 0.0)"
 />
<polygon
 fill="#0000ff"
 points="0.5000000000000001,0.5 -0.5,0.5000000000000001 -0.5000000000000001,-0.5 0.4999999999999999,-0.5000000000000001"
 stroke="#000000"
 stroke-width=".03px"
 transform="translate(-0.2583333333333322 1.1208333333333336) matrix(0.5999999999999999 0.8000000000000003 -0.8000000000000003 0.5999999999999999 0.0 0.0)"
 />
<polygon
 fill="#0000ff"
 points="0.5000000000000001,0.5 -0.5,0.5000000000000001 -0.5000000000000001,-0.5 0.4999999999999999,-0.5000000000000001"
 stroke="#000000"
 stroke-width=".03px"
 transform="translate(-1.0583333333333325 1.7208333333333334) matrix(0.5999999999999999 0.8000000000000003 -0.8000000000000003 0.5999999999999999 0.0 0.0)"
 />
<polygon
 fill="#0000ff"
 points="0.5000000000000001,0.5 -0.5,0.5000000000000001 -0.5000000000000001,-0.5 0.4999999999999999,-0.5000000000000001"
 stroke="#000000"
 stroke-width=".03px"
 transform="translate(0.34166666666666856 1.9208333333333325) matrix(0.5999999999999999 0.8000000000000003 -0.8000000000000003 0.5999999999999999 0.0 0.0)"
 />
<polygon
 fill="#0000ff"
 points="0.5000000000000001,0.5 -0.5,0.5000000000000001 -0.5000000000000001,-0.5 0.4999999999999999,-0.5000000000000001"
 stroke="#000000"
 stroke-width=".03px"
 transform="translate(-0.4583333333333317 2.520833333333332) matrix(0.5999999999999999 0.8000000000000003 -0.8000000000000003 0.5999999999999999 0.0 0.0)"
 />
<polygon
 fill="#0000ff"
 points="0.5000000000000001,0.5 -0.5,0.5000000000000001 -0.5000000000000001,-0.5 0.4999999999999999,-0.5000000000000001"
 stroke="#000000"
 stroke-width=".03px"
 transform="translate(-1.2583333333333324 3.120833333333332) matrix(0.5999999999999999 0.8000000000000003 -0.8000000000000003 0.5999999999999999 0.0 0.0)"
 />
<polygon
 fill="#0000ff"
 points="0.5000000000000001,0.5 -0.5,0.5000000000000001 -0.5000000000000001,-0.5 0.4999999999999999,-0.5000000000000001"
 stroke="#000000"
 stroke-width=".03px"
 transform="translate(-1.8583333333333332 2.320833333333333) matrix(0.5999999999999999 0.8000000000000003 -0.8000000000000003 0.5999999999999999 0.0 0.0)"
 />
<polygon
 fill="#0000ff"
 points="0.5000000000000001,0.5 -0.5,0.5000000000000001 -0.5000000000000001,-0.5 0.4999999999999999,-0.5000000000000001"
 stroke="#000000"
 stroke-width=".03px"
 transform="translate(-2.458333333333332 1.520833333333333) matrix(0.5999999999999999 0.8000000000000003 -0.8000000000000003 0.5999999999999999 0.0 0.0)"
 />
<polygon
 fill="#0000ff"
 points="0.5000000000000001,0.5 -0.5,0.5000000000000001 -0.5000000000000001,-0.5 0.4999999999999999,-0.5000000000000001"
 stroke="#000000"
 stroke-width=".03px"
 transform="translate(-3.058333333333332 0.7208333333333337) matrix(0.5999999999999999 0.8000000000000003 -0.8000000000000003 0.5999999999999999 0.0 0.0)"
 />
<polygon
 fill="#0000ff"
 points="0.5000000000000001,0.5 -0.5,0.5000000000000001 -0.5000000000000001,-0.5 0.4999999999999999,-0.5000000000000001"
 stroke="#000000"
 stroke-width=".03px"
 transform="translate(-3.6583333333333323 -0.07916666666666658) matrix(0.5999999999999999 0.8000000000000003 -0.8000000000000003 0.5999999999999999 0.0 0.0)"
 />
<polygon
 fill="#0000ff"
 points="0.5000000000000001,0.5 -0.5,0.5000000000000001 -0.5000000000000001,-0.5 0.4999999999999999,-0.5000000000000001"
 stroke="#000000"
 stroke-width=".03px"
 transform="translate(-2.0583333333333327 3.7208333333333323) matrix(0.5999999999999999 0.8000000000000003 -0.8000000000000003 0.5999999999999999 0.0 0.0)"
 />
<polygon
 fill="#0000ff"
 points="0.5000000000000001,0.5 -0.5,0.5000000000000001 -0.5000000000000001,-0.5 0.4999999999999999,-0.5000000000000001"
 stroke="#000000"
 stroke-width=".03px"
 transform="translate(-4.458333333333333 0.5208333333333326) matrix(0.5999999999999999 0.8000000000000003 -0.8000000000000003 0.5999999999999999 0.0 0.0)"
 />
<polygon
 fill="#0000ff"
 points="0.5000000000000001,0.5 -0.5,0.5000000000000001 -0.5000000000000001,-0.5 0.4999999999999999,-0.5000000000000001"
 stroke="#000000"
 stroke-width=".03px"
 transform="translate(-3.8583333333333325 1.3208333333333333) matrix(0.5999999999999999 0.8000000000000003 -0.8000000000000003 0.5999999999999999 0.0 0.0)"
 />
<polygon
 fill="#0000ff"
 points="0.5000000000000001,0.5 -0.5,0.5000000000000001 -0.5000000000000001,-0.5 0.4999999999999999,-0.5000000000000001"
 stroke="#000000"
 stroke-width=".03px"
 transform="translate(-3.2583333333333337 2.120833333333333) matrix(0.5999999999999999 0.8000000000000003 -0.8000000000000003 0.5999999999999999 0.0 0.0)"
 />
<polygon
 fill="#0000ff"
 points="0.5000000000000001,0.5 -0.5,0.5000000000000001 -0.5000000000000001,-0.5 0.4999999999999999,-0.5000000000000001"
 stroke="#000000"
 stroke-width=".03px"
 transform="translate(-2.658333333333333 2.9208333333333334) matrix(0.5999999999999999 0.8000000000000003 -0.8000000000000003 0.5999999999999999 0.0 0.0)"
 />
<polygon
 fill="#0000ff"
 points="0.5000000000000001,0.5 -0.5,0.5000000000000001 -0.5000000000000001,-0.5 0.4999999999999999,-0.5000000000000001"
 stroke="#000000"
 stroke-width=".03px"
 transform="translate(-5.258333333333334 1.1208333333333342) matrix(0.5999999999999999 0.8000000000000003 -0.8000000000000003 0.5999999999999999 0.0 0.0)"
 />
<polygon
 fill="#0000ff"
 points="0.5000000000000001,0.5 -0.5,0.5000000000000001 -0.5000000000000001,-0.5 0.4999999999999999,-0.5000000000000001"
 stroke="#000000"
 stroke-width=".03px"
 transform="translate(-4.658333333333333 1.920833333333335) matrix(0.5999999999999999 0.8000000000000003 -0.8000000000000003 0.5999999999999999 0.0 0.0)"
 />
<polygon
 fill="#0000ff"
 points="0.5000000000000001,0.5 -0.5,0.5000000000000001 -0.5000000000000001,-0.5 0.4999999999999999,-0.5000000000000001"
 stroke="#000000"
 stroke-width=".03px"
 transform="translate(-4.0583333333333345 2.720833333333335) matrix(0.5999999999999999 0.8000000000000003 -0.8000000000000003 0.5999999999999999 0.0 0.0)"
 />
<polygon
 fill="#0000ff"
 points="0.5000000000000001,0.5 -0.5,0.5000000000000001 -0.5000000000000001,-0.5 0.4999999999999999,-0.5000000000000001"
 stroke="#000000"
 stroke-width=".03px"
 transform="translate(-3.458333333333334 3.520833333333335) matrix(0.5999999999999999 0.8000000000000003 -0.8000000000000003 0.5999999999999999 0.0 0.0)"
 />
<polygon
 fill="#0000ff"
 points="0.5000000000000001,0.5 -0.5,0.5000000000000001 -0.5000000000000001,-0.5 0.4999999999999999,-0.5000000000000001"
 stroke="#000000"
 stroke-width=".03px"
 transform="translate(-2.8583333333333334 4.320833333333334) matrix(0.5999999999999999 0.8000000000000003 -0.8000000000000003 0.5999999999999999 0.0 0.0)"
 />
<polygon
 fill="#ff0000"
 points="0.5000000000000001,0.5 -0.5,0.5000000000000001 -0.5000000000000001,-0.5 0.4999999999999999,-0.5000000000000001"
 stroke="#000000"
 stroke-width=".03px"
 transform="translate(-1.4583333333333321 -2.4791666666666665) matrix(1.0 0.0 0.0 1.0 0.0 0.0)"
 />
<polygon
 fill="#ff0000"
 points="0.5000000000000001,0.5 -0.5,0.5000000000000001 -0.5000000000000001,-0.5 0.4999999999999999,-0.5000000000000001"
 stroke="#000000"
 stroke-width=".03px"
 transform="translate(-0.45833333333333215 -2.4791666666666665) matrix(1.0 0.0 0.0 1.0 0.0 0.0)"
 />
<polygon
 fill="#ff0000"
 points="0.5000000000000001,0.5 -0.5,0.5000000000000001 -0.5000000000000001,-0.5 0.4999999999999999,-0.5000000000000001"
 stroke="#000000"
 stroke-width=".03px"
 transform="translate(0.5416666666666679 -2.4791666666666665) matrix(1.0 0.0 0.0 1.0 0.0 0.0)"
 />
<polygon
 fill="#ff0000"
 points="0.5000000000000001,0.5 -0.5,0.5000000000000001 -0.5000000000000001,-0.5 0.4999999999999999,-0.5000000000000001"
 stroke="#000000"
 stroke-width=".03px"
 transform="translate(-1.4583333333333324 -3.4791666666666665) matrix(1.0 0.0 0.0 1.0 0.0 0.0)"
 />
<polygon
 fill="#ff0000"
 points="0.5000000000000001,0.5 -0.5,0.5000000000000001 -0.5000000000000001,-0.5 0.4999999999999999,-0.5000000000000001"
 stroke="#000000"
 stroke-width=".03px"
 transform="translate(0.5416666666666676 -3.4791666666666665) matrix(1.0 0.0 0.0 1.0 0.0 0.0)"
 />
<polygon
 fill="#ff0000"
 points="0.5000000000000001,0.5 -0.5,0.5000000000000001 -0.5000000000000001,-0.5 0.4999999999999999,-0.5000000000000001"
 stroke="#000000"
 stroke-width=".03px"
 transform="translate(-0.45833333333333226 -3.4791666666666665) matrix(1.0 0.0 0.0 1.0 0.0 0.0)"
 />
<polygon
 fill="#ff0000"
 points="0.5000000000000001,0.5 -0.5,0.5000000000000001 -0.5000000000000001,-0.5 0.4999999999999999,-0.5000000000000001"
 stroke="#000000"
 stroke-width=".03px"
 transform="translate(0.5416666666666676 -4.479166666666666) matrix(1.0 0.0 0.0 1.0 0.0 0.0)"
 />
<polygon
 fill="#ff0000"
 points="0.5000000000000001,0.5 -0.5,0.5000000000000001 -0.5000000000000001,-0.5 0.4999999999999999,-0.5000000000000001"
 stroke="#000000"
 stroke-width=".03px"
 transform="translate(-0.45833333333333237 -4.479166666666666) matrix(1.0 0.0 0.0 1.0 0.0 0.0)"
 />
<polygon
 fill="#ff0000"
 points="0.5000000000000001,0.5 -0.5,0.5000000000000001 -0.5000000000000001,-0.5 0.4999999999999999,-0.5000000000000001"
 stroke="#000000"
 stroke-width=".03px"
 transform="translate(-1.4583333333333324 -4.479166666666666) matrix(1.0 0.0 0.0 1.0 0.0 0.0)"
 />
<polygon
 fill="#00ff00"
 points="0.5000000000000001,0.5 -0.5,0.5000000000000001 -0.5000000000000001,-0.5 0.4999999999999999,-0.5000000000000001"
 stroke="#000000"
 stroke-width=".03px"
 transform="translate(1.5416666666666687 1.5208333333333326) matrix(1.0 0.0 0.0 1.0 0.0 0.0)"
 />
<polygon
 fill="#00ff00"
 points="0.5000000000000001,0.5 -0.5,0.5000000000000001 -0.5000000000000001,-0.5 0.4999999999999999,-0.5000000000000001"
 stroke="#000000"
 stroke-width=".03px"
 transform="translate(2.5416666666666687 1.5208333333333324) matrix(1.0 0.0 0.0 1.0 0.0 0.0)"
 />
<polygon
 fill="#00ff00"
 points="0.5000000000000001,0.5 -0.5,0.5000000000000001 -0.5000000000000001,-0.5 0.4999999999999999,-0.5000000000000001"
 stroke="#000000"
 stroke-width=".03px"
 transform="translate(3.5416666666666687 1.520833333333332) matrix(1.0 0.0 0.0 1.0 0.0 0.0)"
 />
<polygon
 fill="#00ff00"
 points="0.5000000000000001,0.5 -0.5,0.5000000000000001 -0.5000000000000001,-0.5 0.4999999999999999,-0.5000000000000001"
 stroke="#000000"
 stroke-width=".03px"
 transform="translate(1.5416666666666687 0.5208333333333326) matrix(1.0 0.0 0.0 1.0 0.0 0.0)"
 />
<polygon
 fill="#00ff00"
 points="0.5000000000000001,0.5 -0.5,0.5000000000000001 -0.5000000000000001,-0.5 0.4999999999999999,-0.5000000000000001"
 stroke="#000000"
 stroke-width=".03px"
 transform="translate(3.5416666666666687 0.5208333333333319) matrix(1.0 0.0 0.0 1.0 0.0 0.0)"
 />
<polygon
 fill="#00ff00"
 points="0.5000000000000001,0.5 -0.5,0.5000000000000001 -0.5000000000000001,-0.5 0.4999999999999999,-0.5000000000000001"
 stroke="#000000"
 stroke-width=".03px"
 transform="translate(2.5416666666666687 0.5208333333333324) matrix(1.0 0.0 0.0 1.0 0.0 0.0)"
 />
<polygon
 fill="#00ff00"
 points="0.5000000000000001,0.5 -0.5,0.5000000000000001 -0.5000000000000001,-0.5 0.4999999999999999,-0.5000000000000001"
 stroke="#000000"
 stroke-width=".03px"
 transform="translate(4.541666666666669 0.5208333333333319) matrix(1.0 0.0 0.0 1.0 0.0 0.0)"
 />
<polygon
 fill="#00ff00"
 points="0.5000000000000001,0.5 -0.5,0.5000000000000001 -0.5000000000000001,-0.5 0.4999999999999999,-0.5000000000000001"
 stroke="#000000"
 stroke-width=".03px"
 transform="translate(4.541666666666669 1.520833333333332) matrix(1.0 0.0 0.0 1.0 0.0 0.0)"
 />
<polygon
 fill="#00ff00"
 points="0.5000000000000001,0.5 -0.5,0.5000000000000001 -0.5000000000000001,-0.5 0.4999999999999999,-0.5000000000000001"
 stroke="#000000"
 stroke-width=".03px"
 transform="translate(4.541666666666669 -0.4791666666666681) matrix(1.0 0.0 0.0 1.0 0.0 0.0)"
 />
<polygon
 fill="#00ff00"
 points="0.5000000000000001,0.5 -0.5,0.5000000000000001 -0.5000000000000001,-0.5 0.4999999999999999,-0.5000000000000001"
 stroke="#000000"
 stroke-width=".03px"
 transform="translate(2.5416666666666687 -0.47916666666666763) matrix(1.0 0.0 0.0 1.0 0.0 0.0)"
 />
<polygon
 fill="#00ff00"
 points="0.5000000000000001,0.5 -0.5,0.5000000000000001 -0.5000000000000001,-0.5 0.4999999999999999,-0.5000000000000001"
 stroke="#000000"
 stroke-width=".03px"
 transform="translate(3.5416666666666687 -0.4791666666666681) matrix(1.0 0.0 0.0 1.0 0.0 0.0)"
 />
<polygon
 fill="#00ff00"
 points="0.5000000000000001,0.5 -0.5,0.5000000000000001 -0.5000000000000001,-0.5 0.4999999999999999,-0.5000000000000001"
 stroke="#000000"
 stroke-width=".03px"
 transform="translate(1.5416666666666687 -0.4791666666666674) matrix(1.0 0.0 0.0 1.0 0.0 0.0)"
 />
<polygon
 fill="#00ff00"
 points="0.5000000000000001,0.5 -0.5,0.5000000000000001 -0.5000000000000001,-0.5 0.4999999999999999,-0.5000000000000001"
 stroke="#000000"
 stroke-width=".03px"
 transform="translate(2.5416666666666687 -1.4791666666666676) matrix(1.0 0.0 0.0 1.0 0.0 0.0)"
 />
<polygon
 fill="#00ff00"
 points="0.5000000000000001,0.5 -0.5,0.5000000000000001 -0.5000000000000001,-0.5 0.4999999999999999,-0.5000000000000001"
 stroke="#000000"
 stroke-width=".03px"
 transform="translate(1.5416666666666687 -1.4791666666666674) matrix(1.0 0.0 0.0 1.0 0.0 0.0)"
 />
<polygon
 fill="#00ff00"
 points="0.5000000000000001,0.5 -0.5,0.5000000000000001 -0.5000000000000001,-0.5 0.4999999999999999,-0.5000000000000001"
 stroke="#000000"
 stroke-width=".03px"
 transform="translate(3.5416666666666687 -1.479166666666668) matrix(1.0 0.0 0.0 1.0 0.0 0.0)"
 />
<polygon
 fill="#00ff00"
 points="0.5000000000000001,0.5 -0.5,0.5000000000000001 -0.5000000000000001,-0.5 0.4999999999999999,-0.5000000000000001"
 stroke="#000000"
 stroke-width=".03px"
 transform="translate(4.541666666666669 -1.479166666666668) matrix(1.0 0.0 0.0 1.0 0.0 0.0)"
 />
</g>
</svg>